<svg width="100" height="100" viewBox="0 0 100 100" fill="none" xmlns="http://www.w3.org/2000/svg">
<g clip-path="url(#clip0_122_740)">
<path d="M50 100C77.6142 100 100 77.6142 100 50C100 22.3858 77.6142 0 50 0C22.3858 0 0 22.3858 0 50C0 77.6142 22.3858 100 50 100Z" fill="#232323"/>
<path d="M77.8455 73.4531H22.1533V75.0156H77.8455V73.4531Z" fill="#CCCBCA"/>
<path d="M69.2779 78.1406H30.7217V79.7031H69.2779V78.1406Z" fill="#CCCBCA"/>
<path d="M31.25 55.3312C31.25 54.2906 31.3938 53.1562 31.6781 51.9312H35.1469V54.3359C35.1469 55.7328 35.35 56.7359 35.7578 57.3484C36.1641 57.9625 36.8312 58.2672 37.7578 58.2672C38.6969 58.2672 39.3594 57.9297 39.7484 57.2562C40.1375 56.5797 40.3328 55.6062 40.3328 54.3375V48.6703C40.3328 47.9375 40.2688 47.3453 40.1438 46.8922C40.0172 46.4406 39.8469 46.0859 39.6281 45.8281C39.4109 45.5703 39.1562 45.3969 38.8656 45.3047C38.5719 45.2125 38.2547 45.1656 37.9125 45.1656C37.2719 45.1656 36.7219 45.3469 36.2641 45.7078C35.8063 46.0687 35.4281 46.5016 35.1297 47.0047H31.85V32.0312H44.4516V35.9641H35.5578V43.2109C36.0391 42.6609 36.6422 42.2312 37.3703 41.9234C38.0969 41.6141 38.8547 41.4594 39.6453 41.4594C41.4641 41.4594 42.7984 42.0719 43.6453 43.2969C44.4937 44.5219 44.9156 46.325 44.9156 48.7062V53.6859C44.9156 55.1969 44.7219 56.4578 44.3328 57.4719C43.9422 58.4844 43.4281 59.2984 42.7875 59.9109C42.1469 60.525 41.4047 60.9609 40.5641 61.225C39.7219 61.4875 38.8547 61.6203 37.9625 61.6203C36.875 61.6203 35.9125 61.4734 35.0766 61.1828C34.2422 60.8906 33.5406 60.4703 32.9734 59.9203C32.4062 59.3703 31.9766 58.7094 31.6859 57.9359C31.3953 57.1625 31.25 56.2922 31.25 55.3312Z" fill="white"/>
<path d="M52.8656 47.9578C52.3687 47.9578 51.8672 47.8875 51.3656 47.7484C50.8625 47.6078 50.4094 47.3344 50.0016 46.9297C49.5953 46.5234 49.2656 45.9469 49.0125 45.2C48.7594 44.4531 48.6328 43.4734 48.6328 42.2578V40.8562C48.6328 40.0609 48.6937 39.3734 48.8156 38.7922C48.9375 38.2125 49.1062 37.7172 49.3203 37.3047C49.5344 36.8937 49.7812 36.5625 50.0609 36.3094C50.3406 36.0562 50.6375 35.8594 50.9516 35.7187C51.2656 35.5797 51.5875 35.4844 51.9141 35.4297C52.2422 35.3781 52.5641 35.3516 52.8781 35.3516C53.1734 35.3516 53.4859 35.3766 53.8078 35.4234C54.1312 35.4703 54.4484 35.5656 54.7578 35.7062C55.0672 35.8453 55.3641 36.0406 55.6422 36.2891C55.9203 36.5375 56.1656 36.8672 56.3766 37.2781C56.5859 37.6891 56.7516 38.1875 56.8734 38.7719C56.9953 39.3578 57.0562 40.0516 57.0562 40.8562V42.2578C57.0562 43.4563 56.9219 44.4266 56.65 45.1734C56.3797 45.9219 56.0359 46.5 55.6219 46.9094C55.2078 47.3187 54.7516 47.5969 54.2594 47.7406C53.7672 47.8859 53.3016 47.9578 52.8656 47.9578ZM52.8906 45.875C53.4422 45.875 53.8266 45.6375 54.0437 45.1594C54.2625 44.6828 54.3719 43.9437 54.3719 42.9391V40.3953C54.3719 39.3828 54.2625 38.6359 54.0437 38.1547C53.825 37.6734 53.4406 37.4328 52.8906 37.4328C52.3141 37.4328 51.9094 37.6734 51.6797 38.1547C51.4484 38.6359 51.3312 39.3812 51.3312 40.3953V42.9391C51.3312 43.9437 51.4469 44.6828 51.6797 45.1594C51.9094 45.6375 52.3141 45.875 52.8906 45.875ZM60.8078 35.6266H63.1797L57.1641 58.2594H54.7797L60.8078 35.6266ZM60.8328 51.3531C60.8328 50.1547 60.9656 49.1969 61.2328 48.475C61.5 47.7547 61.8406 47.2 62.2547 46.8125C62.6703 46.4234 63.1266 46.1656 63.6234 46.0391C64.1219 45.9125 64.6031 45.8484 65.0656 45.8484C65.3625 45.8484 65.6734 45.8734 65.9969 45.9219C66.3203 45.9687 66.6359 46.0641 66.9469 46.2031C67.2562 46.3438 67.5516 46.5375 67.8312 46.7859C68.1109 47.0359 68.3547 47.3656 68.5641 47.7766C68.775 48.1875 68.9406 48.6859 69.0625 49.2703C69.1844 49.8562 69.2453 50.55 69.2453 51.3547V52.7563C69.2453 53.5609 69.1812 54.2594 69.0562 54.8531C68.9281 55.4469 68.7594 55.9531 68.5453 56.3734C68.3297 56.7938 68.0844 57.1375 67.8031 57.4094C67.5234 57.6797 67.2297 57.8953 66.9203 58.0516C66.6094 58.2094 66.2937 58.3156 65.9703 58.3719C65.6469 58.4281 65.3422 58.4578 65.0531 58.4578C64.7203 58.4578 64.3859 58.4281 64.05 58.3719C63.7125 58.3156 63.3891 58.2125 63.0797 58.0641C62.7703 57.9156 62.4766 57.7062 62.2016 57.4359C61.925 57.1641 61.6875 56.8188 61.4875 56.4C61.2859 55.9813 61.1266 55.4719 61.0078 54.8734C60.8891 54.275 60.8312 53.5687 60.8312 52.7578V51.3531H60.8328ZM63.5203 53.4359C63.5203 54.4422 63.6359 55.1812 63.8672 55.6578C64.0984 56.1344 64.5031 56.3719 65.0797 56.3719C65.6312 56.3719 66.0141 56.1344 66.2328 55.6578C66.4516 55.1812 66.5594 54.4422 66.5594 53.4359V50.8938C66.5594 49.8813 66.4516 49.1328 66.2328 48.6516C66.0125 48.1719 65.6297 47.9312 65.0797 47.9312C64.5031 47.9312 64.0984 48.1719 63.8672 48.6516C63.6375 49.1328 63.5203 49.8797 63.5203 50.8938V53.4359Z" fill="white"/>
</g>
<defs>
<clipPath id="clip0_122_740">
<rect width="100" height="100" fill="white"/>
</clipPath>
</defs>
</svg>
