<svg width="100" height="100" viewBox="0 0 100 100" fill="none" xmlns="http://www.w3.org/2000/svg">
<g clip-path="url(#clip0_122_731)">
<path d="M50 100C77.6142 100 100 77.6142 100 50C100 22.3858 77.6142 0 50 0C22.3858 0 0 22.3858 0 50C0 77.6142 22.3858 100 50 100Z" fill="#232323"/>
<path d="M77.8455 73.4531H22.1533V75.0156H77.8455V73.4531Z" fill="#CCCBCA"/>
<path d="M69.2779 78.1406H30.7217V79.7031H69.2779V78.1406Z" fill="#CCCBCA"/>
<path d="M21.8936 55.6783L28.367 43.2111C28.9623 42.0768 29.4451 41.0877 29.8186 40.2408C30.192 39.3939 30.4826 38.6518 30.6951 38.0174C30.9076 37.383 31.0529 36.8299 31.1326 36.3596C31.2123 35.8893 31.2529 35.4674 31.2529 35.0893C31.2529 34.4939 31.1982 33.9939 31.0904 33.5877C30.9811 33.1799 30.8201 32.8549 30.6092 32.608C30.3967 32.3627 30.1326 32.1877 29.8186 32.0846C29.5045 31.9814 29.1404 31.9299 28.7279 31.9299C27.7201 31.9299 26.992 32.3455 26.5404 33.1752C26.0873 34.0049 25.8607 35.1986 25.8607 36.7549V38.4189H22.4279C22.3014 37.7783 22.1936 37.1924 22.1014 36.6596C22.0092 36.1268 21.9639 35.5455 21.9639 34.9174C21.9639 34.1721 22.092 33.4314 22.3498 32.6924C22.6076 31.9549 23.0107 31.2893 23.5592 30.6939C24.1076 30.0986 24.8107 29.6174 25.6639 29.2502C26.517 28.883 27.5373 28.7002 28.7279 28.7002C30.0107 28.7002 31.1061 28.8502 32.0154 29.1471C32.9264 29.4439 33.6732 29.8799 34.2576 30.4518C34.842 31.0236 35.267 31.7221 35.5357 32.5471C35.8045 33.3721 35.9404 34.3049 35.9404 35.3455C35.9404 35.9408 35.8857 36.5283 35.7779 37.1049C35.6686 37.683 35.4873 38.3033 35.2357 38.9611C34.9842 39.6189 34.6576 40.3377 34.2576 41.1158C33.8561 41.8939 33.3654 42.7861 32.7811 43.7955L26.9951 54.783H35.5623V58.2861H21.8951V55.6783H21.8936Z" fill="white"/>
<path d="M38.9775 37.3376C38.9775 36.0563 39.0932 34.9485 39.3291 34.0157C39.565 33.0829 39.8729 32.2985 40.2572 31.6626C40.64 31.0282 41.0838 30.5157 41.5885 30.1267C42.0932 29.7376 42.6104 29.4376 43.1416 29.2251C43.6744 29.0142 44.2072 28.8735 44.7385 28.8048C45.2697 28.736 45.7588 28.7017 46.2057 28.7017C46.6291 28.7017 47.101 28.7345 47.6213 28.797C48.1432 28.8595 48.6697 28.9923 49.2025 29.1923C49.7354 29.3923 50.2494 29.6845 50.7463 30.0688C51.2447 30.4517 51.6854 30.9642 52.0697 31.6048C52.4525 32.2454 52.7619 33.036 52.9979 33.9751C53.2307 34.9142 53.3494 36.0345 53.3494 37.3392V49.7376C53.3494 51.0188 53.2322 52.1267 52.9979 53.0595C52.7635 53.9938 52.4494 54.7845 52.0604 55.4376C51.6713 56.0907 51.226 56.6204 50.7229 57.0267C50.2182 57.4329 49.7041 57.7485 49.1775 57.9704C48.651 58.1923 48.126 58.3438 47.6057 58.4251C47.0854 58.5048 46.6182 58.5454 46.2057 58.5454C45.7479 58.5454 45.251 58.5048 44.7119 58.4251C44.1729 58.3438 43.6369 58.1938 43.0979 57.9704C42.5604 57.747 42.0416 57.4345 41.5447 57.0345C41.0479 56.6329 40.6088 56.1063 40.2307 55.4532C39.8525 54.8017 39.5494 54.0048 39.3213 53.0673C39.0916 52.1282 38.9775 51.0173 38.9775 49.736V37.3376ZM43.5275 51.6079C43.5275 52.8204 43.7479 53.7017 44.1885 54.2517C44.6291 54.8017 45.301 55.0751 46.2057 55.0751C47.0869 55.0751 47.7447 54.8001 48.1807 54.2517C48.615 53.7001 48.8338 52.8204 48.8338 51.6079V35.7251C48.8338 34.4438 48.615 33.5095 48.1807 32.9251C47.7463 32.3423 47.0885 32.0501 46.2057 32.0501C45.301 32.0501 44.6291 32.3423 44.1885 32.9251C43.7479 33.5095 43.5275 34.4438 43.5275 35.7251V51.6079Z" fill="white"/>
<path d="M61.4291 41.5955C60.9322 41.5955 60.4307 41.5252 59.9291 41.3861C59.426 41.2455 58.9729 40.9721 58.565 40.5674C58.1588 40.1611 57.8291 39.5846 57.576 38.8377C57.3229 38.0908 57.1963 37.1111 57.1963 35.8955V34.4939C57.1963 33.6986 57.2572 33.0111 57.3791 32.4299C57.501 31.8502 57.6697 31.3549 57.8838 30.9424C58.0979 30.5314 58.3447 30.2002 58.6244 29.9471C58.9041 29.6939 59.201 29.4971 59.515 29.3564C59.8291 29.2174 60.151 29.1221 60.4775 29.0674C60.8057 29.0158 61.1275 28.9893 61.4416 28.9893C61.7369 28.9893 62.0494 29.0143 62.3713 29.0611C62.6947 29.108 63.0119 29.2033 63.3213 29.3439C63.6307 29.483 63.9275 29.6783 64.2057 29.9268C64.4838 30.1752 64.7291 30.5049 64.94 30.9158C65.1494 31.3268 65.315 31.8252 65.4369 32.4096C65.5588 32.9955 65.6197 33.6893 65.6197 34.4939V35.8955C65.6197 37.0939 65.4854 38.0643 65.2135 38.8111C64.9432 39.5596 64.5994 40.1377 64.1854 40.5471C63.7713 40.9564 63.315 41.2346 62.8229 41.3783C62.3322 41.5236 61.8666 41.5955 61.4291 41.5955ZM61.4557 39.5127C62.0072 39.5127 62.3916 39.2752 62.6088 38.7971C62.8275 38.3205 62.9369 37.5814 62.9369 36.5768V34.033C62.9369 33.0205 62.8275 32.2736 62.6088 31.7924C62.39 31.3111 62.0057 31.0705 61.4557 31.0705C60.8791 31.0705 60.4744 31.3111 60.2447 31.7924C60.0135 32.2736 59.8963 33.0189 59.8963 34.033V36.5768C59.8963 37.5814 60.0119 38.3205 60.2447 38.7971C60.4744 39.2752 60.8791 39.5127 61.4557 39.5127ZM69.3713 29.2643H71.7432L65.7275 51.8971H63.3432L69.3713 29.2643ZM69.3979 44.9908C69.3979 43.7924 69.5307 42.8346 69.7979 42.1127C70.065 41.3924 70.4057 40.8377 70.8197 40.4502C71.2354 40.0611 71.6916 39.8033 72.1885 39.6768C72.6869 39.5502 73.1682 39.4861 73.6307 39.4861C73.9275 39.4861 74.2385 39.5111 74.5619 39.5596C74.8854 39.6064 75.201 39.7018 75.5119 39.8408C75.8213 39.9814 76.1166 40.1752 76.3963 40.4236C76.676 40.6736 76.9197 41.0033 77.1291 41.4143C77.34 41.8252 77.5057 42.3236 77.6275 42.908C77.7494 43.4939 77.8104 44.1877 77.8104 44.9924V46.3939C77.8104 47.1986 77.7463 47.8971 77.6213 48.4908C77.4932 49.0846 77.3244 49.5908 77.1104 50.0111C76.8947 50.4314 76.6494 50.7752 76.3682 51.0471C76.0885 51.3174 75.7947 51.533 75.4854 51.6893C75.1744 51.8471 74.8588 51.9533 74.5354 52.0096C74.2119 52.0658 73.9072 52.0955 73.6182 52.0955C73.2854 52.0955 72.951 52.0658 72.615 52.0096C72.2775 51.9533 71.9541 51.8502 71.6447 51.7018C71.3354 51.5533 71.0416 51.3439 70.7666 51.0736C70.49 50.8018 70.2525 50.4564 70.0525 50.0377C69.851 49.6189 69.6916 49.1096 69.5729 48.5111C69.4541 47.9127 69.3963 47.2064 69.3963 46.3955V44.9908H69.3979ZM72.0854 47.0736C72.0854 48.0799 72.201 48.8189 72.4322 49.2955C72.6635 49.7721 73.0682 50.0096 73.6447 50.0096C74.1963 50.0096 74.5791 49.7721 74.7979 49.2955C75.0166 48.8189 75.1244 48.0799 75.1244 47.0736V44.5314C75.1244 43.5189 75.0166 42.7705 74.7979 42.2893C74.5775 41.8096 74.1947 41.5689 73.6447 41.5689C73.0682 41.5689 72.6635 41.8096 72.4322 42.2893C72.2025 42.7705 72.0854 43.5174 72.0854 44.5314V47.0736Z" fill="white"/>
</g>
<defs>
<clipPath id="clip0_122_731">
<rect width="100" height="100" fill="white"/>
</clipPath>
</defs>
</svg>
