<svg width="40" height="40" viewBox="0 0 40 40" fill="none" xmlns="http://www.w3.org/2000/svg">
<path d="M23.3332 32.1428L26.3332 35L33.3332 28.3333M27.4998 24.003C27.0085 23.7192 26.4638 23.5163 25.8837 23.412C25.7578 23.3895 25.6245 23.3733 25.4735 23.3618C25.0982 23.3333 24.9105 23.3192 24.66 23.3378C24.3997 23.3572 24.2543 23.3828 24.003 23.4538C23.7613 23.522 23.326 23.7192 22.4552 24.1137C21.1983 24.683 19.8027 25 18.3332 25C16.8637 25 15.4681 24.683 14.2112 24.1137C13.3403 23.7192 12.9049 23.5218 12.6631 23.4537C12.4118 23.3828 12.2662 23.3572 12.0059 23.3377C11.7554 23.319 11.5678 23.3333 11.1928 23.362C11.0393 23.3737 10.904 23.3902 10.7758 23.4133C8.72387 23.7848 7.11795 25.3907 6.74647 27.4427C6.6665 27.8843 6.6665 28.4142 6.6665 29.4735V32.3333C6.6665 33.2668 6.6665 33.7335 6.84815 34.09C7.00795 34.4037 7.26292 34.6585 7.57652 34.8183C7.93304 35 8.39975 35 9.33317 35H17.4998M24.9998 11.6667C24.9998 15.3486 22.015 18.3333 18.3332 18.3333C14.6513 18.3333 11.6665 15.3486 11.6665 11.6667C11.6665 7.98477 14.6513 5 18.3332 5C22.015 5 24.9998 7.98477 24.9998 11.6667Z" stroke="#FF7323" stroke-width="3" stroke-linecap="round" stroke-linejoin="round"/>
</svg>
