<svg width="29" height="26" viewBox="0 0 29 26" fill="none" xmlns="http://www.w3.org/2000/svg">
<path d="M14.5001 16.9705C15.8634 16.9705 16.9686 15.8654 16.9686 14.5021C16.9686 13.1388 15.8634 12.0337 14.5001 12.0337C13.1369 12.0337 12.0317 13.1388 12.0317 14.5021C12.0317 15.8654 13.1369 16.9705 14.5001 16.9705Z" fill="#FF7323"/>
<path d="M20.8122 8.18955C19.126 6.50305 16.8843 5.57428 14.5 5.57428C12.1158 5.57428 9.87425 6.50305 8.18853 8.18955C6.50237 9.87565 5.57373 12.1182 5.57373 14.5024C5.57373 16.8871 6.50232 19.1291 8.18853 20.8155C8.95046 21.5766 10.1853 21.5771 10.9471 20.815C11.7086 20.0529 11.7086 18.8179 10.9467 18.0559C9.9977 17.1071 9.47484 15.845 9.47484 14.5022C9.47484 13.1599 9.9977 11.8978 10.9471 10.9481C11.8958 9.99882 13.1576 9.47585 14.5001 9.47585C15.8424 9.47585 17.1045 9.99882 18.0535 10.9481C19.0026 11.8978 19.5254 13.1599 19.5254 14.5022C19.5254 15.8448 19.0026 17.1071 18.0535 18.0559C17.2916 18.8179 17.2916 20.0529 18.053 20.815C18.434 21.1959 18.9335 21.3865 19.4325 21.3865C19.9316 21.3865 20.4307 21.1959 20.8116 20.8155C22.4978 19.1291 23.4265 16.8869 23.4265 14.5024C23.4264 12.1182 22.4979 9.8756 20.8122 8.18955Z" fill="#FF7323"/>
<path d="M24.7578 4.24303C19.1015 -1.41434 9.89848 -1.41434 4.24223 4.24303C-1.41408 9.89999 -1.41408 19.1053 4.24223 24.7622C5.0032 25.5242 6.23937 25.5242 7.00039 24.7622C7.76227 24.0006 7.76227 22.7651 7.00039 22.0034C4.99749 19.9997 3.89416 17.3357 3.89416 14.5029C3.89416 11.6693 4.99749 9.00554 7.00039 7.00179C11.1357 2.86559 17.8643 2.86559 21.9997 7.00179C24.0026 9.00559 25.1059 11.6695 25.1059 14.5029C25.1059 17.3359 24.0026 19.9997 21.9996 22.0034C21.2377 22.7651 21.2377 24.0007 21.9996 24.7622C22.3801 25.1432 22.8797 25.3337 23.3787 25.3337C23.8778 25.3337 24.3774 25.1432 24.7578 24.7622C30.4141 19.1054 30.4141 9.89989 24.7578 4.24303Z" fill="#FF7323"/>
</svg>
