<svg width="36" height="36" viewBox="0 0 36 36" fill="none" xmlns="http://www.w3.org/2000/svg">
<g clip-path="url(#clip0_53_560)">
<path fill-rule="evenodd" clip-rule="evenodd" d="M18 36C27.9422 36 36 27.9422 36 18C36 8.05781 27.9422 0 18 0C8.05781 0 0 8.05781 0 18C0 27.9422 8.05781 36 18 36ZM9.825 10.343L18 16.882L26.175 10.343L26.4117 10.1461H9.58828L9.825 10.343ZM27.2859 11.6883L27.6 11.4281V24.982C27.6 25.4648 27.2086 25.8539 26.7281 25.8539H9.27188C8.79141 25.8539 8.4 25.4648 8.4 24.982V11.4281L8.71406 11.6883L8.72813 11.7L17.4539 18.682C17.7727 18.9375 18.2273 18.9375 18.5461 18.682L27.2719 11.7L27.2859 11.6883Z" fill="#FF7323"/>
</g>
<defs>
<clipPath id="clip0_53_560">
<rect width="36" height="36" fill="white"/>
</clipPath>
</defs>
</svg>
