<svg width="85" height="72" viewBox="0 0 85 72" fill="none" xmlns="http://www.w3.org/2000/svg">
<path d="M4.5 2.5H0V0.5H10.5C14.1 0.1 16.3333 5 17 7.5C18.2 9.1 18.8333 16.5 19 20L19.5 32C19 34.5 21 40 23.5 42.5C25.5 44.5 33 46 36.5 46.5V9C36.5 4.2 33.1667 2.66667 31.5 2.5H27V0H58.5V2.5H56C50.4 2.5 48.3333 6.83333 48 9C47.6667 21.3333 47.2 46.1 48 46.5C48.8 46.9 54.3333 45.6667 57 45C64.2 42.2 66 35.5 66 32.5V20.5C66.8 14.1 67.6667 9.16667 68 7.5C68.8 2.3 74.6667 0.333333 77.5 0H85V2.5H81.5C78.3 3.7 77.5 6.33333 77.5 7.5V25C76.5 39 70 42.5 67 45C64.6 47 53.3333 48.8333 48 49.5V61C48.4 67.4 51.8333 69.3333 53.5 69.5H59.5V72H25.5V69.5H30.5C35.7 69.5 36.6667 63.8333 36.5 61V49.5C33.5 49.1667 25.6 47.8 18 45C10.4 42.2 7.83333 30.5 7.5 25C7.33333 20.1667 7.1 9.9 7.5 7.5C7.9 5.1 5.66667 3.16667 4.5 2.5Z" fill="#232323"/>
</svg>
