<svg width="64" height="60" viewBox="0 0 64 60" fill="none" xmlns="http://www.w3.org/2000/svg">
<path fill-rule="evenodd" clip-rule="evenodd" d="M31.69 20.9467C33.6574 20.9467 35.2517 22.4595 35.2517 24.3263C35.2517 26.1928 33.6574 27.7059 31.69 27.7059C29.7227 27.7059 28.1283 26.1928 28.1283 24.3263C28.1283 22.4595 29.7227 20.9467 31.69 20.9467ZM22.8063 24.3263V24.9321L25.2637 25.2792C25.3327 25.7213 25.4569 26.1437 25.6191 26.5499L23.676 28.017L24.3146 29.0651L26.6269 28.2035C26.9168 28.5441 27.2447 28.8552 27.6071 29.1304L26.696 31.3246L27.8004 31.9303L29.3465 30.0866C29.7745 30.244 30.2197 30.3585 30.6856 30.4271L31.0549 32.7555H32.3283L32.6976 30.4271C33.1601 30.3585 33.6088 30.244 34.0332 30.0866L35.5829 31.9303L36.6838 31.3246L35.7762 29.1304C36.135 28.8551 36.463 28.5441 36.7528 28.2035L39.0653 29.0651L39.7037 28.017L37.7607 26.5499C37.9263 26.1437 38.0471 25.7214 38.1196 25.2792L40.5769 24.9289V24.3263V23.7205L38.1196 23.3701C38.0471 22.9312 37.9263 22.5055 37.7607 22.1029L39.7037 20.6324L39.0653 19.5878L36.7528 20.449C36.4629 20.1084 36.135 19.7972 35.7762 19.5224L36.6838 17.3283L35.5829 16.7224L34.0332 18.5659C33.6087 18.4088 33.1601 18.2944 32.6976 18.2255L32.3283 15.8939H31.0549L30.6856 18.2255C30.2197 18.2944 29.7745 18.4088 29.3465 18.5659L27.8004 16.7224L26.696 17.3283L27.6071 19.5224C27.2447 19.7973 26.9168 20.1084 26.6269 20.449L24.3146 19.5878L23.676 20.6324L25.6191 22.1029C25.457 22.5056 25.3327 22.9312 25.2637 23.3701L22.8063 23.7205V24.3263ZM50.203 13.8536C50.403 13.7423 50.6619 13.8077 50.7792 13.9977C50.8966 14.1907 50.8277 14.4364 50.624 14.5477L46.8517 16.6141C46.648 16.7256 46.3891 16.6601 46.2719 16.4701C46.1546 16.277 46.2236 16.0313 46.4273 15.9199L50.203 13.8536ZM53.3609 24.2346C53.5955 24.2346 53.7855 24.4147 53.7855 24.6375C53.7855 24.8603 53.5956 25.0403 53.3609 25.0403H49.0018C48.7671 25.0403 48.5771 24.8603 48.5771 24.6375C48.5771 24.4147 48.767 24.2346 49.0018 24.2346H53.3609ZM20.6562 6.76031C20.5389 6.5673 20.6079 6.32144 20.8081 6.21023C21.0117 6.09879 21.2707 6.16441 21.388 6.35754L23.5656 9.94031C23.683 10.13 23.614 10.3759 23.4138 10.4871C23.2103 10.5986 22.9513 10.5329 22.834 10.3396L20.6562 6.76031ZM12.7561 14.5478C12.5526 14.4366 12.4834 14.1908 12.6008 13.9978C12.7182 13.8079 12.977 13.7423 13.1807 13.8537L16.9529 15.92C17.1565 16.0314 17.2256 16.2771 17.1082 16.4702C16.9908 16.6602 16.7321 16.7258 16.5318 16.6143L12.7561 14.5478ZM10.0193 25.0402C9.78468 25.0402 9.59473 24.8602 9.59473 24.6374C9.59473 24.4146 9.78455 24.2345 10.0193 24.2345H14.3783C14.613 24.2345 14.8028 24.4146 14.8028 24.6374C14.8028 24.8602 14.613 25.0402 14.3783 25.0402H10.0193ZM30.9617 3.44309C30.9652 3.22359 31.155 3.04688 31.3898 3.04688C31.621 3.05004 31.8074 3.23355 31.8074 3.45293L31.7556 6.97652C31.7522 7.19918 31.5623 7.37602 31.3277 7.37273C31.0965 7.37273 30.9066 7.18934 30.9101 6.9668L30.9617 3.44309ZM20.3387 55.2334C20.104 55.2334 19.9142 55.0535 19.9142 54.8307C19.9142 54.608 20.104 54.4278 20.3387 54.4278H35.8592C36.0904 54.4278 36.2838 54.608 36.2838 54.8307C36.2838 55.0535 36.0905 55.2334 35.8592 55.2334H20.3387ZM28.4803 56.9528C28.2456 56.9528 28.0558 56.7725 28.0558 56.5532C28.0558 56.3305 28.2455 56.1503 28.4803 56.1503H40.798C41.0327 56.1503 41.2225 56.3304 41.2225 56.5532C41.2225 56.7725 41.0328 56.9528 40.798 56.9528H28.4803ZM42.0577 56.9528C41.823 56.9528 41.6332 56.7725 41.6332 56.5532C41.6332 56.3305 41.8229 56.1503 42.0577 56.1503H43.6004C43.8316 56.1503 44.0214 56.3304 44.0214 56.5532C44.0214 56.7725 43.8316 56.9528 43.6004 56.9528H42.0577ZM17.3568 56.8808C17.1221 56.8808 16.9322 56.7007 16.9322 56.4779C16.9322 56.2552 17.122 56.075 17.3568 56.075H23.1929C23.4275 56.075 23.6175 56.2552 23.6175 56.4779C23.6175 56.7007 23.4277 56.8808 23.1929 56.8808H17.3568ZM22.3024 40.6969C22.4646 40.6969 22.6303 40.5953 22.6855 40.4708C22.8271 40.1989 22.6097 39.8912 22.3024 39.8912H21.4534C21.2946 39.8912 21.129 39.9895 21.0738 40.1173C20.9323 40.3857 21.1497 40.6969 21.4534 40.6969H22.3024ZM41.0395 40.6969C41.1985 40.6969 41.3674 40.5953 41.4192 40.4708C41.5607 40.1989 41.3468 39.8912 41.0395 39.8912H40.1907C40.0318 39.8912 39.8626 39.9895 39.811 40.1173C39.6695 40.3857 39.8835 40.6969 40.1907 40.6969H41.0395ZM44.4323 40.6969C44.591 40.6969 44.7601 40.5953 44.812 40.4708C44.9535 40.1989 44.7393 39.8912 44.4323 39.8912H43.5832C43.4245 39.8912 43.2554 39.9895 43.2037 40.1173C43.0621 40.3857 43.2761 40.6969 43.5832 40.6969H44.4323ZM18.0642 39.8912C17.9021 39.8912 17.7363 39.9895 17.6811 40.1173C17.5397 40.3857 17.7571 40.6969 18.0642 40.6969H18.9097C19.0719 40.6969 19.2376 40.5953 19.293 40.4708C19.4344 40.1989 19.217 39.8912 18.9097 39.8912H18.0642ZM22.3024 38.6436C22.4646 38.6436 22.6303 38.5453 22.6855 38.4176C22.8271 38.1491 22.6097 37.838 22.3024 37.838H21.4534C21.2946 37.838 21.129 37.9363 21.0738 38.064C20.9323 38.3325 21.1497 38.6436 21.4534 38.6436H22.3024ZM41.0395 38.6436C41.1985 38.6436 41.3674 38.5453 41.4192 38.4176C41.5607 38.1491 41.3468 37.838 41.0395 37.838H40.1907C40.0318 37.838 39.8626 37.9363 39.811 38.064C39.6695 38.3325 39.8835 38.6436 40.1907 38.6436H41.0395ZM44.4323 38.6436C44.591 38.6436 44.7601 38.5453 44.812 38.4176C44.9535 38.1491 44.7393 37.838 44.4323 37.838H43.5832C43.4245 37.838 43.2554 37.9363 43.2037 38.064C43.0621 38.3325 43.2761 38.6436 43.5832 38.6436H44.4323ZM18.0642 37.838C17.9021 37.838 17.7363 37.9363 17.6811 38.064C17.5397 38.3325 17.7571 38.6436 18.0642 38.6436H18.9097C19.0719 38.6436 19.2376 38.5453 19.293 38.4176C19.4344 38.1491 19.217 37.838 18.9097 37.838H18.0642ZM41.9921 6.35754C42.1096 6.16453 42.3684 6.09879 42.572 6.21023C42.7722 6.32144 42.8412 6.5673 42.7273 6.76031L40.5461 10.3396C40.4288 10.5328 40.1699 10.5986 39.9697 10.4871C39.7662 10.3759 39.6971 10.13 39.8145 9.94031L41.9921 6.35754ZM25.4916 44.8132H37.8921V47.6195H25.4916V44.8132ZM26.665 50.4227H36.7152V48.4252H26.665V50.4227ZM34.6927 51.2284V53.2293H28.6874V51.2284H34.6927ZM31.69 11.3221C39.4243 11.3221 45.6953 17.2723 45.6953 24.611C45.6953 29.1629 43.283 33.1811 39.6039 35.5751L37.005 43.7456C36.9774 43.8308 36.9601 43.9192 36.9463 44.0075H26.4337C26.4233 43.9192 26.406 43.8307 26.3783 43.7456L23.7761 35.5751C20.1004 33.1811 17.6844 29.1629 17.6844 24.611C17.6846 17.2724 23.9555 11.3221 31.69 11.3221Z" fill="white"/>
</svg>
