<svg width="55" height="51" viewBox="0 0 55 51" fill="none" xmlns="http://www.w3.org/2000/svg">
<path d="M49.9943 25.7226C49.9943 29.9256 48.6807 34.0342 46.2198 37.5289C43.7588 41.0236 40.2609 43.7474 36.1685 45.3558C32.0761 46.9643 27.5729 47.3851 23.2284 46.5651C18.8839 45.7452 14.8932 43.7212 11.761 40.7492C8.62876 37.7772 6.4957 33.9907 5.63153 29.8684C4.76735 25.7461 5.21088 21.4733 6.90602 17.5902C8.60116 13.7071 11.4718 10.3882 15.1549 8.0531C18.838 5.71802 23.1681 4.47168 27.5977 4.47168C30.5389 4.47168 33.4512 5.02135 36.1685 6.08931C38.8858 7.15727 41.3548 8.72259 43.4345 10.6959C45.5142 12.6693 47.1639 15.0119 48.2894 17.5902C49.415 20.1685 49.9943 22.9319 49.9943 25.7226ZM38.3391 32.06C38.3339 31.906 38.2994 31.7541 38.2373 31.6117C38.1456 31.4112 38.0107 31.2311 37.8412 31.0829L36.7549 30.0495L36.4409 29.7569L36.4353 29.7516L29.4705 23.1377L29.462 23.1243L28.6557 22.3593L26.3898 24.5093C25.9682 24.9313 25.4316 25.2342 24.8395 25.3844C24.3437 25.507 23.8236 25.5114 23.3256 25.3972C22.8276 25.2829 22.3671 25.0535 21.9851 24.7294L21.9569 24.7026L21.9088 24.6623L21.4137 24.1926C20.9063 23.7347 20.5747 23.1291 20.4717 22.472C20.4001 22.0086 20.4407 21.5359 20.5905 21.0896C20.742 20.6396 20.9938 20.2258 21.3288 19.8764L21.3515 19.8495L21.3882 19.8146L23.0658 18.2229L19.4363 14.7119L12.5026 21.3956L14.2594 22.9686L15.9935 24.6113C15.8979 25.0162 15.8674 25.4325 15.903 25.846C15.9438 26.3156 16.0474 26.7783 16.2113 27.223C16.401 27.7391 16.6545 28.232 16.9667 28.6913C17.3347 29.232 17.7645 29.7324 18.2481 30.1837L28.0786 39.5114C28.2077 39.6381 28.364 39.737 28.5369 39.8013C28.6856 39.8517 28.8431 39.8744 29.0009 39.8684C29.2017 39.8537 29.3899 39.7697 29.5299 39.6322L30.0136 39.1758C30.1209 39.0612 30.1958 38.9227 30.2314 38.7732C30.2658 38.6281 30.2639 38.4773 30.2258 38.333C30.1636 38.1297 30.042 37.9473 29.875 37.8069L28.6869 36.6688C28.65 36.637 28.6204 36.5983 28.5999 36.5552C28.5794 36.5121 28.5684 36.4655 28.5676 36.4182C28.5668 36.3709 28.5762 36.324 28.5953 36.2803C28.6143 36.2366 28.6426 36.1971 28.6784 36.1642L28.916 35.9816C28.9625 35.9385 29.025 35.9144 29.09 35.9144C29.155 35.9144 29.2174 35.9385 29.264 35.9816L31.0745 37.6673C31.6685 38.231 32.1957 38.3196 32.6558 37.933L33.1367 37.474C33.2099 37.4037 33.2727 37.3242 33.3235 37.2378C33.3818 37.1358 33.4111 37.0211 33.4083 36.905C33.4027 36.7549 33.3611 36.608 33.2867 36.4755C33.1783 36.2843 33.0379 36.1111 32.8708 35.9628L31.1226 34.3389C31.0501 34.2704 31.0092 34.1775 31.0087 34.0804C31.0081 33.9834 31.0481 33.8901 31.1197 33.8208L31.2951 33.6517C31.3288 33.6189 31.3691 33.593 31.4137 33.5756C31.4583 33.5581 31.5062 33.5495 31.5544 33.5502C31.6026 33.551 31.6502 33.5611 31.6941 33.5799C31.7381 33.5988 31.7775 33.6259 31.81 33.6598L33.7054 35.4931C33.7704 35.5575 33.8581 35.638 33.9713 35.7347C34.0796 35.8309 34.2063 35.9066 34.3447 35.9575C34.4864 36.0113 34.6405 36.0289 34.7917 36.0085C34.9818 35.9699 35.1535 35.8739 35.2811 35.7347L35.8921 35.1549C35.9653 35.0845 36.0281 35.0051 36.0788 34.9187C36.1373 34.8167 36.1666 34.7019 36.1637 34.5858C36.1581 34.439 36.1185 34.2951 36.0477 34.1644C35.9594 33.9906 35.8375 33.834 35.6884 33.7027L33.8609 32.0063C33.8157 31.9635 33.7799 31.9125 33.7555 31.8564C33.7312 31.8004 33.7187 31.7403 33.719 31.6796C33.7193 31.619 33.7322 31.559 33.757 31.5031C33.7819 31.4472 33.8182 31.3965 33.8638 31.354L33.9317 31.2816C33.9698 31.2452 34.0155 31.2167 34.0657 31.1977C34.116 31.1787 34.1698 31.1697 34.2239 31.1712C34.278 31.1727 34.3311 31.1847 34.3801 31.2064C34.4291 31.2282 34.4729 31.2592 34.5088 31.2977L36.0449 32.7847C36.0873 32.825 36.158 32.8921 36.2655 32.9834C36.3775 33.0798 36.5044 33.1595 36.6418 33.2196C36.7896 33.284 36.9519 33.3126 37.1142 33.3028C37.3162 33.2779 37.5015 33.1833 37.6347 33.037L38.1185 32.578C38.1717 32.5209 38.2173 32.4578 38.2543 32.3902C38.3117 32.2879 38.3399 32.1731 38.3363 32.0573L38.3391 32.06ZM42.5033 21.2722L35.6007 14.7227L33.0406 17.1519C32.1455 16.9742 31.2377 16.8603 30.3248 16.811C29.8115 16.7833 29.2967 16.7968 28.7859 16.8513C28.2885 16.9043 27.8006 17.0189 27.3346 17.1922C26.8754 17.361 26.4582 17.6188 26.1097 17.9491L22.7886 21.103L22.7829 21.1084C22.6335 21.2619 22.5206 21.4441 22.4519 21.6426L22.4491 21.656C22.3893 21.8382 22.3738 22.031 22.4038 22.2197C22.4535 22.4762 22.5907 22.7101 22.7942 22.8854L23.2751 23.3417C23.4237 23.4689 23.6037 23.5585 23.7985 23.602L23.8098 23.6047C23.9949 23.6432 24.1871 23.6386 24.3699 23.5913C24.6184 23.5201 24.8415 23.3854 25.0149 23.2021L27.9683 20.3998C28.1512 20.2269 28.3989 20.1298 28.6572 20.1298C28.9154 20.1298 29.1631 20.2269 29.346 20.3998L37.8101 28.4444L37.9233 28.5517L38.1496 28.2296C38.4544 27.7811 38.7022 27.3 38.8879 26.7963C39.0486 26.3574 39.1503 25.9011 39.1906 25.438C39.2085 25.2111 39.2085 24.9832 39.1906 24.7563C39.1796 24.6242 39.1989 24.4914 39.2472 24.367L42.5033 21.2722ZM33.6997 34.3335L33.711 34.3255C33.6792 34.3469 33.6461 34.3666 33.612 34.3845C33.6404 34.3655 33.6697 34.3476 33.6997 34.3308V34.3335Z" fill="white"/>
</svg>
