<svg width="94" height="94" viewBox="0 0 94 94" fill="none" xmlns="http://www.w3.org/2000/svg">
<path fill-rule="evenodd" clip-rule="evenodd" d="M46.9999 7.8335C68.6312 7.8335 86.1666 25.3688 86.1666 47.0002C86.1666 68.6313 68.6312 86.1668 46.9999 86.1668C25.3688 86.1668 7.83325 68.6313 7.83325 47.0002C7.83325 25.3688 25.3688 7.8335 46.9999 7.8335ZM50.9252 43.0835H43.0918V66.5835H50.9252V43.0835ZM47.0397 26.4377C44.1841 26.4377 42.1127 28.4976 42.1127 31.2792C42.1127 34.1732 44.1295 36.2293 47.0397 36.2293C49.8368 36.2293 51.9043 34.1732 51.9043 31.3335C51.9043 28.4976 49.8368 26.4377 47.0397 26.4377Z" fill="#FF7323"/>
</svg>
