<svg width="100" height="100" viewBox="0 0 100 100" fill="none" xmlns="http://www.w3.org/2000/svg">
<path d="M31.6604 19.0278C26.5195 19.0278 22.3164 23.2103 22.2904 28.3507L22.2627 33.904C23.3455 33.6423 24.1158 33.664 24.7004 33.664L26.2762 26.971C26.5344 25.8743 27.1223 24.8827 27.9607 24.13C32.4295 20.244 34.0131 19.0278 34.0131 19.0278H31.6604Z" fill="#232323"/>
<path d="M78.6986 18.3364C77.1559 16.7862 74.6488 16.7805 73.099 18.3229L64.4287 26.9518L59.0449 21.8692C57.1041 20.0368 54.5652 19.0276 51.8963 19.0276H48.8584C48.4008 20.2231 44.5098 30.3885 43.9502 31.8506L45.1076 26.3993C45.1889 26.0165 45.1297 25.6171 44.9414 25.2743L43.3521 22.3838L44.765 19.8143C44.9754 19.4317 44.698 18.962 44.2609 18.962H40.3832C39.9465 18.962 39.6684 19.4313 39.8791 19.8143L39.8953 19.8438C40.0795 20.001 40.2564 20.1712 40.4227 20.3563C42.3313 22.4823 42.4473 25.9526 39.8945 28.2442L40.5381 31.8505L39.4354 28.6565L36.6199 31.1838L36.0361 33.6633C37.8979 33.6633 50.974 33.6633 52.7109 33.6633V28.0139C52.7109 27.8014 52.8373 27.6092 53.0324 27.5249C53.2275 27.4409 53.4541 27.4805 53.6088 27.6266L60.0029 33.6631C62.3408 33.6631 64.4176 34.2686 66.2537 36.013C66.2537 36.013 70.75 31.8456 78.6854 23.935C80.2354 22.3934 80.2414 19.8864 78.6986 18.3364Z" fill="#232323"/>
<path d="M42.3223 0C37.7902 0 34.1162 3.67402 34.1162 8.20605C34.116 12.7459 37.8029 16.4123 42.3223 16.4123C46.8109 16.4123 50.5283 12.774 50.5283 8.20625C50.5281 3.67402 46.8541 0 42.3223 0Z" fill="#232323"/>
<path d="M60.3826 38.0774H31.5965C32.3561 34.8514 32.9098 32.4987 33.6359 29.4147L37.7916 25.6841C38.6986 24.8698 38.7738 23.4747 37.9596 22.5676C37.1453 21.6606 35.7502 21.5854 34.8432 22.3997L30.1721 26.593C29.8365 26.8942 29.6016 27.2907 29.498 27.7296C29.1572 29.1778 27.3982 36.6491 27.0619 38.0774H24.2666C21.9914 38.0774 20.1475 39.9217 20.1475 42.1967V43.0475C20.1475 45.3227 21.9918 47.1667 24.2666 47.1667L30.6826 98.4999C30.7895 99.3559 31.5168 99.9999 32.3795 99.9999C36.7547 99.9999 47.8061 99.9999 52.2693 99.9999C53.1338 99.9999 53.859 99.3577 53.966 98.4999L60.382 47.1667C62.6572 47.1667 64.5012 45.3223 64.5012 43.0475V42.1967H64.5016C64.5019 39.9217 62.6576 38.0774 60.3826 38.0774Z" fill="#232323"/>
</svg>
