<svg width="94" height="94" viewBox="0 0 94 94" fill="none" xmlns="http://www.w3.org/2000/svg">
<path d="M40 0C17.9087 0 0 17.9081 0 40C0 62.0919 17.9087 80 40 80C62.0913 80 80 62.0919 80 40C80 17.9081 62.0914 0 40 0ZM32.4497 59.1866C32.4497 56.4347 34.6811 54.2033 37.433 54.2033C40.1828 54.2033 42.4142 56.4347 42.4142 59.1866C42.4142 61.9358 40.1828 64.1684 37.433 64.1684C34.6811 64.1684 32.4497 61.9358 32.4497 59.1866ZM53.6914 34.1956C53.1295 35.7258 52.3161 37.0533 51.3953 38.1575C49.5442 40.3681 47.3503 41.7072 45.545 42.6952C44.3389 43.3473 43.2742 43.8497 42.6123 44.2216C42.1584 44.4722 41.9125 44.6825 41.7911 44.8194C41.6711 44.9641 41.6303 45.0234 41.5573 45.2609C41.5147 45.4186 41.4702 45.6691 41.4702 46.0564C41.4702 47.1295 41.4702 48.0114 41.4702 48.0114C41.4702 49.0227 40.6502 49.8439 39.6384 49.8439H35.2241C34.2123 49.8439 33.3909 49.0227 33.3909 48.0114C33.3909 48.0114 33.3909 47.1294 33.3909 46.0564C33.3909 45.0505 33.5084 44.0652 33.7667 43.1225C34.0223 42.1838 34.4253 41.2916 34.9398 40.5141C35.9709 38.9386 37.3683 37.8887 38.6873 37.1578C39.8438 36.5212 40.9878 35.993 42.0492 35.3952C43.11 34.8025 44.0559 34.1592 44.7527 33.462C45.2195 32.9972 45.5823 32.5167 45.86 31.9745C46.2248 31.2514 46.478 30.4016 46.4837 29.1012C46.4856 28.7164 46.3747 28.2103 46.0725 27.6317C45.7716 27.0558 45.2809 26.4295 44.625 25.8677C43.3047 24.7352 41.3683 23.9075 39.1478 23.9112C36.6033 23.9203 34.9 24.5169 33.5873 25.2581C32.2811 26.0044 31.8641 26.7573 31.8641 26.7573C31.1972 27.3383 30.2073 27.3589 29.5164 26.8064L26.1242 24.0881C25.6994 23.7486 25.4489 23.2384 25.4373 22.6934C25.4275 22.1498 25.66 21.6294 26.0719 21.2717C26.0719 21.2717 27.1289 19.642 29.5798 18.2436C32.0205 16.8386 35.2552 15.8236 39.148 15.8328C42.3066 15.8328 45.2166 16.7019 47.6273 18.1236C50.0389 19.553 51.9862 21.5211 53.2291 23.8855C54.0542 25.4595 54.5611 27.2339 54.5623 29.1011C54.5642 30.9441 54.2575 32.6653 53.6914 34.1956Z" fill="#FF7323"/>
</svg>
