<svg width="116" height="116" viewBox="0 0 116 116" fill="none" xmlns="http://www.w3.org/2000/svg">
<g clip-path="url(#clip0_632_8130)">
<path d="M98.6468 100.761V116H16.9665V100.755C16.9665 95.1019 21.8439 88.1309 27.8067 85.3086L41.0736 79.0008L50.281 98.1859L54.9918 85.4067C55.9197 85.5881 56.8446 85.8201 57.8082 85.8201C58.7747 85.8201 59.6967 85.5881 60.6275 85.4067L65.0974 97.5614L74.1175 78.7896L87.8067 85.2997C93.7695 88.1309 98.6468 95.1019 98.6468 100.761ZM57.8112 78.7867C69.4662 78.7867 78.9145 64.2826 78.9145 50.9889C78.9145 37.6833 69.4691 30.6261 57.8112 30.6261C46.1561 30.6261 36.7138 37.6833 36.7138 50.9889C36.7078 64.2826 46.1561 78.7867 57.8112 78.7867ZM89.3383 45.1539L84.7881 43.5867C85.2669 42.1978 85.6862 41.1807 86.0431 40.5264C86.4 39.8692 86.9532 39.3487 87.6937 38.9651C88.4372 38.5696 89.4959 38.3287 90.8848 38.2275C91.5301 38.2097 92.0833 38.1919 92.5561 38.177C93.0171 38.1562 93.4335 38.1145 93.7933 38.0461C94.1532 37.9777 94.4714 37.8498 94.7271 37.6714C95.4112 37.2342 95.9584 36.4283 96.3569 35.2625C96.8714 33.7755 96.9695 32.7138 96.6572 32.0774C96.4937 31.6313 96.1636 31.2625 95.655 30.977C95.1435 30.6915 94.3673 30.3703 93.3234 30.0134C92.1427 29.6446 91.2565 29.4275 90.6647 29.3472C90.0877 29.2669 89.6 29.3443 89.2104 29.5911C88.7941 29.9004 88.3777 30.5398 87.9435 31.5212C87.9494 31.6551 87.9108 31.8424 87.8275 32.0803L87.4558 33.151L82.9086 31.5896C83.6312 29.49 84.3599 27.9524 85.0974 26.977C85.8409 26.0045 86.6706 25.4127 87.5955 25.1926C88.6572 24.9368 89.7546 24.922 90.8758 25.148C91.9941 25.374 93.3383 25.7577 94.9056 26.2959C98.4089 27.5034 100.512 28.9606 101.216 30.6826C101.847 32.1963 101.71 34.2543 100.809 36.8744C100.181 38.6885 99.5033 39.9406 98.7628 40.6246C98.0223 41.3026 97.1063 41.7487 96.0149 41.9569C95.6669 42.0283 95.087 42.0907 94.2632 42.1294C93.4513 42.1681 92.8387 42.2008 92.4342 42.2454C92.0268 42.284 91.6193 42.4 91.1941 42.5725C90.6677 42.7301 90.3197 42.974 90.1413 43.2982C89.942 43.5569 89.6714 44.1725 89.3383 45.1539ZM83.5361 47.209L88.0863 48.7733L86.397 53.6833L81.8498 52.119L83.5361 47.209ZM27.9286 44.1993L24.0773 45.8885C23.5598 44.7108 23.2238 43.8097 23.0632 43.1762C22.9086 42.5428 22.9502 41.8766 23.1941 41.1896C23.4379 40.5026 23.9792 39.7145 24.8059 38.8253C25.2104 38.4268 25.5584 38.0878 25.8498 37.8023C26.1353 37.5138 26.3792 37.2432 26.5695 36.9844C26.7569 36.7227 26.8818 36.4551 26.9472 36.1874C27.1286 35.4974 27.0007 34.6528 26.5695 33.6744C26.0134 32.4104 25.4483 31.667 24.8654 31.4469C24.4996 31.2536 24.0654 31.2179 23.5688 31.3368C23.0721 31.4528 22.3851 31.7086 21.4989 32.0982C20.5204 32.5681 19.8216 32.9547 19.3993 33.2491C18.977 33.5465 18.7123 33.8826 18.6052 34.2722C18.5249 34.7123 18.6349 35.3814 18.9413 36.2647C19.0275 36.345 19.1138 36.4907 19.203 36.6959L19.6015 37.609L15.7502 39.3012C14.971 37.5227 14.5279 36.1041 14.4268 35.0335C14.3227 33.9688 14.5041 33.0945 14.968 32.4015C15.5033 31.6075 16.1963 30.9532 17.0528 30.4327C17.9063 29.9153 18.9978 29.3681 20.3271 28.7762C23.2922 27.4736 25.5108 27.1643 26.9859 27.8484C28.2855 28.4432 29.4216 29.8528 30.3941 32.0684C31.0721 33.6119 31.3755 34.8164 31.3011 35.6937C31.2268 36.5681 30.9056 37.3948 30.3286 38.18C30.1442 38.4387 29.8052 38.8253 29.3026 39.3309C28.8 39.8365 28.4342 40.2261 28.1933 40.4937C27.9554 40.7614 27.7591 41.0796 27.5926 41.4454C27.3487 41.8528 27.2684 42.2127 27.3457 42.5279C27.3725 42.8164 27.5628 43.3696 27.9286 44.1993ZM25.4186 48.9606L29.2729 47.2655L31.1019 51.4261L27.2476 53.1123L25.4186 48.9606ZM53.7963 20.119L49.4632 17.9985C50.1086 16.6751 50.6498 15.7086 51.087 15.0989C51.5212 14.4952 52.1398 14.0432 52.9219 13.7458C53.7071 13.4424 54.7955 13.3324 56.1874 13.4067C56.8357 13.4692 57.3918 13.5197 57.8558 13.5673C58.3197 13.606 58.739 13.6149 59.1078 13.5852C59.4766 13.5614 59.8007 13.4692 60.0863 13.3354C60.8268 12.9755 61.4692 12.2469 62.0074 11.1406C62.6974 9.72197 62.9353 8.67513 62.6915 7.99706C62.5903 7.53609 62.2989 7.12569 61.829 6.77773C61.3591 6.43572 60.6245 6.01639 59.6283 5.52866C58.4981 5.01714 57.6416 4.69892 57.0706 4.53832C56.5026 4.3926 56.0089 4.4045 55.5896 4.60078C55.1405 4.85951 54.6439 5.44836 54.0937 6.37922C54.0877 6.51305 54.0253 6.68851 53.9123 6.92346L53.4097 7.9465L49.0736 5.82903C50.052 3.82754 50.971 2.38814 51.8216 1.51379C52.684 0.630518 53.5822 0.142786 54.5279 0.0446446C55.6193 -0.0772885 56.7108 0.0446446 57.7963 0.401522C58.8818 0.767321 60.1725 1.31751 61.6714 2.04316C65.0082 3.68182 66.9234 5.39483 67.4201 7.18814C67.8543 8.76137 67.4736 10.8015 66.2483 13.3056C65.4007 15.0305 64.571 16.1933 63.7472 16.7792C62.9294 17.3621 61.9628 17.6982 60.8476 17.7725C60.4848 17.8023 59.8989 17.7904 59.0781 17.722C58.2602 17.6565 57.6506 17.6209 57.2431 17.609C56.8327 17.5941 56.4074 17.6684 55.9643 17.7963C55.429 17.8736 55.0483 18.0788 54.8283 18.3822C54.5993 18.5993 54.2602 19.1852 53.7963 20.119ZM47.774 21.4484L52.113 23.5658L49.8231 28.2469L45.484 26.1235L47.774 21.4484Z" fill="#FF7323"/>
</g>
<defs>
<clipPath id="clip0_632_8130">
<rect width="116" height="116" fill="white"/>
</clipPath>
</defs>
</svg>
