<svg width="100" height="100" viewBox="0 0 100 100" fill="none" xmlns="http://www.w3.org/2000/svg">
<g clip-path="url(#clip0_495_2)">
<path d="M50 100C77.6142 100 100 77.6142 100 50C100 22.3858 77.6142 0 50 0C22.3858 0 0 22.3858 0 50C0 77.6142 22.3858 100 50 100Z" fill="#232323"/>
<path d="M77.8455 73.4531H22.1533V75.0156H77.8455V73.4531Z" fill="#CCCBCA"/>
<path d="M69.2779 78.1406H30.7217V79.7031H69.2779V78.1406Z" fill="#CCCBCA"/>
<path d="M21.4906 52.311C21.4906 51.8204 21.525 51.2782 21.5937 50.6892C21.6625 50.0985 21.7703 49.4892 21.9203 48.8595H25.3891V50.3532C25.3891 51.2689 25.4656 52.036 25.6203 52.6548C25.775 53.2735 25.9828 53.7704 26.2453 54.1485C26.5094 54.5267 26.8234 54.7954 27.1891 54.9564C27.5547 55.1173 27.9562 55.1954 28.3922 55.1954C28.8156 55.1954 29.2 55.136 29.5422 55.0157C29.8859 54.897 30.1766 54.6985 30.4188 54.4235C30.6578 54.1485 30.8422 53.797 30.9687 53.3673C31.0937 52.9392 31.1578 52.4142 31.1578 51.7954V48.5517C31.1578 47.9329 31.1031 47.3829 30.9953 46.9017C30.8859 46.4204 30.7109 46.0188 30.4719 45.6923C30.2313 45.3657 29.9172 45.1173 29.5281 44.9438C29.1391 44.7735 28.6563 44.6876 28.0844 44.6876H26.2141V41.511H28.0844C28.45 41.511 28.7938 41.4501 29.1156 41.3313C29.4359 41.211 29.7156 41.0157 29.9563 40.747C30.1969 40.4782 30.3844 40.1313 30.5219 39.7079C30.6594 39.2845 30.7281 38.7688 30.7281 38.1642V35.0892C30.7281 34.0032 30.5156 33.2032 30.0938 32.6938C29.6703 32.186 29.0406 31.9313 28.2047 31.9313C27.2781 31.9313 26.5656 32.347 26.0672 33.1767C25.5703 34.0063 25.3203 35.2001 25.3203 36.7563V38.4204H21.8859C21.7594 37.8485 21.6516 37.2798 21.5594 36.7126C21.4672 36.1454 21.4219 35.547 21.4219 34.9188C21.4219 34.1735 21.5594 33.4329 21.8344 32.6938C22.1094 31.9563 22.5234 31.2907 23.0797 30.6954C23.6359 30.1001 24.3391 29.6188 25.1922 29.2517C26.0453 28.886 27.0484 28.7017 28.2063 28.7017C29.4547 28.7017 30.5234 28.8454 31.4172 29.1313C32.3109 29.4173 33.0406 29.8376 33.6062 30.3938C34.1734 30.9485 34.5906 31.6298 34.8609 32.4376C35.1297 33.2454 35.2641 34.1626 35.2641 35.1938V36.9954C35.2641 37.8313 35.1594 38.5735 34.9469 39.2204C34.7344 39.8673 34.4594 40.4298 34.1234 40.911C33.7844 41.3923 33.4016 41.8001 32.9734 42.1392C32.5453 42.4767 32.1062 42.7485 31.6594 42.9532V43.0907C32.2312 43.286 32.7641 43.5407 33.2563 43.8548C33.7469 44.1688 34.175 44.5735 34.5344 45.0642C34.8937 45.5563 35.1781 46.1517 35.3844 46.8517C35.5906 47.5485 35.6922 48.3798 35.6922 49.3407V51.2813C35.6922 52.6313 35.4984 53.7704 35.1094 54.6985C34.7203 55.6267 34.1937 56.372 33.5297 56.9407C32.8641 57.5064 32.0891 57.9157 31.2031 58.1673C30.3156 58.4188 29.3797 58.5454 28.3953 58.5454C26.1516 58.5454 24.4406 58.0017 23.2609 56.9142C22.0813 55.8251 21.4906 54.2923 21.4906 52.311Z" fill="white"/>
<path d="M39.3486 37.3376C39.3486 36.0563 39.4643 34.9485 39.7002 34.0157C39.9361 33.0829 40.2439 32.2985 40.6283 31.6626C41.0111 31.0282 41.4549 30.5157 41.9596 30.1267C42.4643 29.7376 42.9814 29.4376 43.5127 29.2251C44.0455 29.0142 44.5783 28.8735 45.1096 28.8048C45.6408 28.736 46.1299 28.7017 46.5768 28.7017C47.0002 28.7017 47.4721 28.7345 47.9924 28.797C48.5143 28.8595 49.0408 28.9923 49.5736 29.1923C50.1064 29.3923 50.6205 29.6845 51.1174 30.0688C51.6158 30.4517 52.0564 30.9642 52.4408 31.6048C52.8236 32.2454 53.133 33.036 53.3689 33.9751C53.6018 34.9142 53.7205 36.0345 53.7205 37.3392V49.7376C53.7205 51.0189 53.6033 52.1267 53.3689 53.0595C53.1346 53.9938 52.8205 54.7845 52.4314 55.4376C52.0424 56.0907 51.5971 56.6204 51.0939 57.0267C50.5893 57.4329 50.0752 57.7485 49.5486 57.9704C49.0221 58.1939 48.4971 58.3438 47.9768 58.4251C47.4564 58.5048 46.9893 58.5454 46.5768 58.5454C46.1189 58.5454 45.6221 58.5048 45.083 58.4251C44.5439 58.3438 44.008 58.1939 43.4689 57.9704C42.9314 57.747 42.4127 57.4345 41.9158 57.0345C41.4189 56.6329 40.9799 56.1064 40.6018 55.4532C40.2236 54.8017 39.9205 54.0048 39.6924 53.0673C39.4627 52.1282 39.3486 51.0173 39.3486 49.736V37.3376ZM43.8986 51.6079C43.8986 52.8204 44.1189 53.7017 44.5596 54.2517C45.0002 54.8017 45.6721 55.0751 46.5768 55.0751C47.458 55.0751 48.1158 54.8001 48.5518 54.2517C48.9861 53.7001 49.2049 52.8204 49.2049 51.6079V35.7251C49.2049 34.4438 48.9861 33.5095 48.5518 32.9251C48.1174 32.3423 47.4596 32.0501 46.5768 32.0501C45.6721 32.0501 45.0002 32.3423 44.5596 32.9251C44.1189 33.5095 43.8986 34.4438 43.8986 35.7251V51.6079Z" fill="white"/>
<path d="M61.8012 41.5955C61.3043 41.5955 60.8027 41.5252 60.3012 41.3861C59.798 41.2455 59.3449 40.9721 58.9371 40.5674C58.5309 40.1611 58.2012 39.5846 57.948 38.8377C57.6949 38.0908 57.5684 37.1111 57.5684 35.8955V34.4939C57.5684 33.6986 57.6293 33.0111 57.7512 32.4299C57.873 31.8502 58.0418 31.3549 58.2559 30.9424C58.4699 30.5314 58.7168 30.2002 58.9965 29.9471C59.2762 29.6939 59.573 29.4971 59.8871 29.3564C60.2012 29.2174 60.523 29.1221 60.8496 29.0674C61.1777 29.0158 61.4996 28.9893 61.8137 28.9893C62.109 28.9893 62.4215 29.0143 62.7434 29.0611C63.0668 29.108 63.384 29.2033 63.6934 29.3439C64.0027 29.483 64.2996 29.6783 64.5777 29.9268C64.8559 30.1752 65.1012 30.5049 65.3121 30.9158C65.5215 31.3268 65.6871 31.8252 65.809 32.4096C65.9309 32.9955 65.9918 33.6893 65.9918 34.4939V35.8955C65.9918 37.0939 65.8574 38.0643 65.5855 38.8111C65.3152 39.5596 64.9715 40.1377 64.5574 40.5471C64.1434 40.9564 63.6871 41.2346 63.1949 41.3783C62.7027 41.5236 62.2371 41.5955 61.8012 41.5955ZM61.8262 39.5127C62.3777 39.5127 62.7621 39.2752 62.9793 38.7971C63.198 38.3205 63.3074 37.5814 63.3074 36.5768V34.033C63.3074 33.0205 63.198 32.2736 62.9793 31.7924C62.7605 31.3111 62.3762 31.0705 61.8262 31.0705C61.2496 31.0705 60.8449 31.3111 60.6152 31.7924C60.384 32.2736 60.2668 33.0189 60.2668 34.033V36.5768C60.2668 37.5814 60.3824 38.3205 60.6152 38.7971C60.8449 39.2736 61.2496 39.5127 61.8262 39.5127ZM69.7434 29.2627H72.1152L66.0996 51.8955H63.7152L69.7434 29.2627ZM69.7684 44.9893C69.7684 43.7908 69.9012 42.833 70.1684 42.1111C70.4355 41.3908 70.7762 40.8361 71.1902 40.4486C71.6059 40.0596 72.0621 39.8018 72.559 39.6752C73.0574 39.5486 73.5387 39.4846 74.0012 39.4846C74.298 39.4846 74.609 39.5096 74.9324 39.558C75.2559 39.6049 75.5715 39.7002 75.8824 39.8393C76.1918 39.9799 76.4871 40.1736 76.7668 40.4221C77.0465 40.6721 77.2902 41.0018 77.4996 41.4127C77.7105 41.8236 77.8762 42.3221 77.998 42.9064C78.1199 43.4924 78.1809 44.1861 78.1809 44.9908V46.3924C78.1809 47.1971 78.1168 47.8955 77.9918 48.4893C77.8637 49.083 77.6949 49.5893 77.4809 50.0096C77.2652 50.4299 77.0199 50.7736 76.7387 51.0455C76.459 51.3158 76.1652 51.5314 75.8559 51.6877C75.5449 51.8455 75.2293 51.9518 74.9059 52.008C74.5824 52.0643 74.2777 52.0939 73.9887 52.0939C73.6559 52.0939 73.3215 52.0643 72.9855 52.008C72.648 51.9518 72.3246 51.8486 72.0152 51.7002C71.7059 51.5518 71.4121 51.3424 71.1371 51.0721C70.8605 50.8002 70.623 50.4549 70.423 50.0361C70.2215 49.6174 70.0621 49.108 69.9434 48.5096C69.8246 47.9111 69.7668 47.2049 69.7668 46.3939V44.9893H69.7684ZM72.4559 47.0721C72.4559 48.0783 72.5715 48.8174 72.8027 49.2939C73.034 49.7705 73.4387 50.008 74.0152 50.008C74.5668 50.008 74.9496 49.7705 75.1684 49.2939C75.3871 48.8174 75.4949 48.0783 75.4949 47.0721V44.5314C75.4949 43.5189 75.3871 42.7705 75.1684 42.2893C74.948 41.8096 74.5652 41.5689 74.0152 41.5689C73.4387 41.5689 73.034 41.8096 72.8027 42.2893C72.573 42.7705 72.4559 43.5174 72.4559 44.5314V47.0721Z" fill="white"/>
</g>
<defs>
<clipPath id="clip0_495_2">
<rect width="100" height="100" fill="white"/>
</clipPath>
</defs>
</svg>
