<svg width="100" height="100" viewBox="0 0 100 100" fill="none" xmlns="http://www.w3.org/2000/svg">
<g clip-path="url(#clip0_122_749)">
<path d="M50 100C77.6142 100 100 77.6142 100 50C100 22.3858 77.6142 0 50 0C22.3858 0 0 22.3858 0 50C0 77.6142 22.3858 100 50 100Z" fill="#232323"/>
<path d="M77.8455 73.4531H22.1533V75.0156H77.8455V73.4531Z" fill="#CCCBCA"/>
<path d="M69.2779 78.1406H30.7217V79.7031H69.2779V78.1406Z" fill="#CCCBCA"/>
<path d="M28.4828 53.5721H31.5016V35.8096L28.2703 38.6611L26.5625 36.6643L32.4781 30.5049H35.4203L35.4047 30.5361L35.4203 30.5205V53.5736H38.425V56.5471H28.4844V53.5721H28.4828Z" fill="white"/>
<path d="M40.4221 37.9437C40.4221 36.8047 40.5252 35.8234 40.7346 34.9937C40.9439 34.1641 41.2174 33.4672 41.558 32.9047C41.8986 32.3406 42.2924 31.8859 42.7393 31.5391C43.1861 31.1937 43.6471 30.9266 44.1189 30.7391C44.5924 30.55 45.0643 30.4266 45.5377 30.3656C46.0096 30.3047 46.4439 30.2734 46.8408 30.2734C47.2158 30.2734 47.6361 30.3016 48.0986 30.3578C48.5627 30.4125 49.0299 30.5297 49.5018 30.7094C49.9752 30.8859 50.4314 31.1453 50.8736 31.4859C51.3158 31.8266 51.7064 32.2828 52.0486 32.8516C52.3893 33.4203 52.6643 34.1203 52.8705 34.9562C53.0799 35.7891 53.183 36.7859 53.183 37.9437V48.9531C53.183 50.0922 53.0799 51.0734 52.8705 51.9031C52.6627 52.7313 52.3846 53.4359 52.0408 54.0156C51.6939 54.5953 51.2971 55.0656 50.8502 55.4266C50.4033 55.7859 49.9455 56.0656 49.4783 56.2641C49.0096 56.4625 48.5455 56.5969 48.0814 56.6687C47.6189 56.7391 47.2049 56.775 46.8393 56.775C46.433 56.775 45.9908 56.7391 45.5127 56.6687C45.0346 56.5969 44.5564 56.4625 44.0783 56.2641C43.6002 56.0656 43.1408 55.7891 42.6986 55.4344C42.2564 55.0766 41.8689 54.6109 41.533 54.0312C41.1971 53.4531 40.9268 52.7469 40.7236 51.9125C40.5205 51.0797 40.4189 50.0937 40.4189 48.9547V37.9437H40.4221ZM44.4627 50.6156C44.4627 51.6922 44.658 52.475 45.0502 52.9641C45.4408 53.4516 46.0393 53.6953 46.8408 53.6953C47.6236 53.6953 48.208 53.4531 48.5939 52.9641C48.9799 52.475 49.1736 51.6937 49.1736 50.6156V36.5125C49.1736 35.3734 48.9799 34.5453 48.5939 34.0266C48.208 33.5078 47.6236 33.2484 46.8408 33.2484C46.0377 33.2484 45.4408 33.5078 45.0502 34.0266C44.658 34.5453 44.4627 35.3734 44.4627 36.5125V50.6156Z" fill="white"/>
<path d="M58.8857 44.3955C58.4436 44.3955 57.9998 44.3346 57.5529 44.2096C57.1076 44.0861 56.7029 43.8439 56.3436 43.483C55.9826 43.1221 55.6889 42.6096 55.4654 41.9471C55.2389 41.283 55.1279 40.4127 55.1279 39.3346V38.0893C55.1279 37.383 55.1811 36.7721 55.2904 36.2549C55.3982 35.7393 55.5482 35.3002 55.7373 34.9346C55.9279 34.5705 56.1467 34.2752 56.3951 34.0502C56.6436 33.8252 56.9076 33.6502 57.1873 33.5268C57.467 33.4033 57.7514 33.3174 58.042 33.2705C58.3342 33.2252 58.6186 33.2002 58.8982 33.2002C59.1623 33.2002 59.4373 33.2221 59.7232 33.2643C60.0092 33.3064 60.292 33.3908 60.567 33.5143C60.8436 33.6393 61.1045 33.8111 61.3529 34.033C61.6014 34.2533 61.8186 34.5455 62.0045 34.9111C62.1904 35.2768 62.3389 35.7189 62.4467 36.2393C62.5545 36.7596 62.6092 37.3768 62.6092 38.0908V39.3361C62.6092 40.3986 62.4889 41.2611 62.2482 41.9252C62.0092 42.5877 61.7029 43.1018 61.3357 43.4658C60.967 43.8299 60.5639 44.0783 60.1264 44.2049C59.6873 44.3314 59.2732 44.3955 58.8857 44.3955ZM58.9107 42.5471C59.3982 42.5471 59.7404 42.3346 59.9342 41.9127C60.1279 41.4908 60.2248 40.833 60.2248 39.9393V37.683C60.2248 36.783 60.1279 36.1189 59.9342 35.6924C59.7404 35.2674 59.3982 35.0533 58.9107 35.0533C58.3982 35.0533 58.0389 35.2674 57.8342 35.6924C57.6279 36.1189 57.5264 36.783 57.5264 37.683V39.9393C57.5264 40.8314 57.6279 41.4893 57.8342 41.9127C58.0404 42.3361 58.3982 42.5471 58.9107 42.5471ZM65.9389 33.4455H68.0467L62.7045 53.5439H60.5873L65.9389 33.4455ZM65.9623 47.4111C65.9623 46.3471 66.0811 45.4955 66.3186 44.8564C66.5545 44.2158 66.8576 43.7221 67.2264 43.3783C67.5936 43.033 67.9998 42.8049 68.442 42.6924C68.8842 42.5799 69.3107 42.5236 69.7217 42.5236C69.9857 42.5236 70.2607 42.5455 70.5467 42.5877C70.8326 42.6299 71.1154 42.7143 71.3904 42.8377C71.667 42.9627 71.9279 43.1346 72.1764 43.3564C72.4248 43.5783 72.642 43.8705 72.8279 44.2346C73.0139 44.5986 73.1623 45.0408 73.2701 45.5611C73.3779 46.0814 73.4326 46.6986 73.4326 47.4127V48.658C73.4326 49.3721 73.3764 49.9924 73.2639 50.5189C73.1514 51.0455 72.9998 51.4971 72.8107 51.8689C72.6201 52.2408 72.4014 52.5486 72.1529 52.7877C71.9045 53.0283 71.642 53.2174 71.367 53.358C71.092 53.4971 70.8107 53.5924 70.5232 53.6439C70.2357 53.6955 69.9654 53.7189 69.7092 53.7189C69.4154 53.7189 69.117 53.6939 68.8201 53.6439C68.5217 53.5939 68.2342 53.5018 67.9576 53.3705C67.6826 53.2377 67.4232 53.0518 67.1779 52.8127C66.9342 52.5721 66.7232 52.2643 66.5451 51.8924C66.367 51.5205 66.2248 51.0689 66.1201 50.5361C66.017 50.0049 65.9623 49.3799 65.9623 48.658V47.4111ZM68.3482 49.2611C68.3482 50.1533 68.4498 50.8111 68.6561 51.2346C68.8623 51.658 69.2201 51.8689 69.7311 51.8689C70.2201 51.8689 70.5607 51.6564 70.7561 51.2346C70.9498 50.8111 71.0467 50.1549 71.0467 49.2611V47.0049C71.0467 46.1049 70.9498 45.4408 70.7561 45.0158C70.5607 44.5893 70.2201 44.3752 69.7311 44.3752C69.2201 44.3752 68.8607 44.5893 68.6561 45.0158C68.4498 45.4408 68.3482 46.1049 68.3482 47.0049V49.2611Z" fill="white"/>
</g>
<defs>
<clipPath id="clip0_122_749">
<rect width="100" height="100" fill="white"/>
</clipPath>
</defs>
</svg>
