<svg width="47" height="47" viewBox="0 0 47 47" fill="none" xmlns="http://www.w3.org/2000/svg">
<g clip-path="url(#clip0_915_286)">
<path d="M23.89 0.513672C17.6421 0.513672 16.8616 0.542422 14.4096 0.651672C11.9605 0.766672 10.2932 1.15192 8.82719 1.72117C7.29208 2.29796 5.90144 3.20312 4.75249 4.37336C3.5814 5.52166 2.67623 6.91274 2.10069 8.44867C1.53153 9.91492 1.1449 11.5824 1.03135 14.0319C0.916368 16.4857 0.893372 17.2663 0.893372 23.5137C0.893372 29.7625 0.922117 30.543 1.03135 32.9954C1.14633 35.4435 1.53153 37.1124 2.10069 38.5787C2.67789 40.1138 3.58285 41.5045 4.75249 42.654C5.90114 43.8246 7.29187 44.7298 8.82719 45.3062C10.2947 45.874 11.9619 46.2621 14.4096 46.3757C16.8631 46.4907 17.6435 46.5137 23.89 46.5137C30.1378 46.5137 30.9183 46.4849 33.3703 46.3757C35.818 46.2607 37.4867 45.8725 38.9527 45.3062C40.4872 44.7282 41.8776 43.8232 43.0274 42.654C44.1982 41.5055 45.1034 40.1145 45.6792 38.5787C46.2469 37.1124 46.635 35.4435 46.7486 32.9954C46.8635 30.5416 46.8865 29.761 46.8865 23.5137C46.8865 17.2649 46.8578 16.4843 46.7486 14.0319C46.6336 11.5839 46.2455 9.91348 45.6792 8.44867C45.1018 6.91371 44.1968 5.52301 43.0274 4.37336C41.8796 3.2017 40.4886 2.29633 38.9527 1.72117C37.4867 1.15192 35.818 0.765234 33.3703 0.651672C30.9168 0.536672 30.1364 0.513672 23.89 0.513672ZM23.89 4.65367C30.0272 4.65367 30.7602 4.68386 33.1849 4.79023C35.427 4.89517 36.643 5.26748 37.4522 5.58517C38.5302 6.00205 39.2919 6.49942 40.1011 7.30298C40.9031 8.10798 41.4018 8.87273 41.8172 9.94942C42.132 10.7587 42.5071 11.9763 42.6092 14.2188C42.7184 16.6439 42.7428 17.3727 42.7428 23.5137C42.7428 29.6547 42.7141 30.3849 42.602 32.81C42.4841 35.0525 42.1104 36.2686 41.7942 37.0779C41.3659 38.156 40.8772 38.9179 40.0724 39.7272C39.329 40.4884 38.4256 41.0747 37.4278 41.4436C36.6229 41.7584 35.3868 42.1336 33.1446 42.2357C30.7027 42.3449 29.984 42.3694 23.8325 42.3694C17.6794 42.3694 16.9608 42.3406 14.5203 42.2285C12.2767 42.1106 11.0406 41.7369 10.2357 41.4206C9.14483 40.9922 8.39601 40.5035 7.59256 39.6985C6.8233 38.9601 6.23331 38.0553 5.86782 37.0535C5.55162 36.2485 5.1808 35.0122 5.06294 32.7697C4.9767 30.3547 4.94652 29.6087 4.94652 23.4849C4.94652 17.3597 4.9767 16.6122 5.06294 14.1685C5.1808 11.926 5.55162 10.6912 5.86782 9.88617C6.27026 8.79367 6.78624 8.04617 7.59256 7.23973C8.39601 6.43617 9.14483 5.91867 10.2357 5.51617C11.0406 5.19992 12.2494 4.82617 14.4915 4.71117C16.9349 4.62492 17.6536 4.59617 23.8037 4.59617L23.89 4.65367ZM23.89 11.7032C22.3392 11.703 20.8035 12.0083 19.3707 12.6018C17.9379 13.1953 16.6361 14.0652 15.5395 15.162C14.4429 16.2587 13.5731 17.5608 12.9797 18.9938C12.3863 20.4268 12.081 21.9626 12.0812 23.5137C12.0812 30.0399 17.3704 35.3242 23.89 35.3242C30.4152 35.3242 35.6987 30.0342 35.6987 23.5137C35.6987 16.9874 30.4095 11.7032 23.89 11.7032ZM23.89 31.1813C22.8832 31.1815 21.8863 30.9833 20.9561 30.598C20.026 30.2127 19.1808 29.6479 18.469 28.9358C17.7572 28.2238 17.1926 27.3784 16.8076 26.4481C16.4225 25.5177 16.2245 24.5206 16.2249 23.5137C16.2247 22.5069 16.4228 21.5099 16.808 20.5797C17.1931 19.6495 17.7577 18.8043 18.4695 18.0924C19.1813 17.3805 20.0264 16.8158 20.9564 16.4307C21.8865 16.0455 22.8833 15.8473 23.89 15.8475C24.8966 15.8473 25.8934 16.0455 26.8235 16.4307C27.7535 16.8158 28.5986 17.3805 29.3104 18.0924C30.0222 18.8043 30.5868 19.6495 30.9719 20.5797C31.3571 21.5099 31.5552 22.5069 31.555 23.5137C31.5552 24.5205 31.3571 25.5174 30.9719 26.4476C30.5868 27.3778 30.0222 28.223 29.3104 28.9349C28.5986 29.6468 27.7535 30.2115 26.8235 30.5967C25.8934 30.9819 24.8966 31.1815 23.89 31.1813ZM38.9254 11.2374C38.9254 12.7612 37.6879 13.9974 36.1658 13.9974C34.6423 13.9974 33.4062 12.7597 33.4062 11.2374C33.4294 10.5208 33.7302 9.84135 34.2452 9.34263C34.7602 8.84392 35.449 8.56507 36.1658 8.56507C36.8827 8.56507 37.5714 8.84392 38.0864 9.34263C38.6014 9.84135 38.9023 10.5208 38.9254 11.2374Z" fill="#FDB702"/>
</g>
<defs>
<clipPath id="clip0_915_286">
<rect width="45.9932" height="46" fill="white" transform="translate(0.893372 0.513672)"/>
</clipPath>
</defs>
</svg>
