<svg width="40" height="40" viewBox="0 0 40 40" fill="none" xmlns="http://www.w3.org/2000/svg">
<g clip-path="url(#clip0_280_199)">
<path d="M20 0C14.5662 0 13.8875 0.025 11.755 0.12C9.625 0.22 8.175 0.555 6.9 1.05C5.56492 1.55156 4.35549 2.33865 3.35625 3.35625C2.33777 4.35477 1.55054 5.56441 1.05 6.9C0.555 8.175 0.21875 9.625 0.12 11.755C0.02 13.8888 0 14.5675 0 20C0 25.4338 0.025 26.1125 0.12 28.245C0.22 30.3738 0.555 31.825 1.05 33.1C1.55199 34.4349 2.33902 35.6442 3.35625 36.6438C4.35523 37.6617 5.56474 38.4488 6.9 38.95C8.17625 39.4437 9.62625 39.7812 11.755 39.88C13.8888 39.98 14.5675 40 20 40C25.4338 40 26.1125 39.975 28.245 39.88C30.3738 39.78 31.825 39.4425 33.1 38.95C34.4346 38.4474 35.6438 37.6604 36.6438 36.6438C37.662 35.6451 38.4492 34.4355 38.95 33.1C39.4437 31.825 39.7812 30.3738 39.88 28.245C39.98 26.1113 40 25.4325 40 20C40 14.5662 39.975 13.8875 39.88 11.755C39.78 9.62625 39.4425 8.17375 38.95 6.9C38.4478 5.56525 37.6608 4.35595 36.6438 3.35625C35.6455 2.33742 34.4358 1.55014 33.1 1.05C31.825 0.555 30.3738 0.21875 28.245 0.12C26.1113 0.02 25.4325 0 20 0ZM20 3.6C25.3375 3.6 25.975 3.62625 28.0837 3.71875C30.0337 3.81 31.0913 4.13375 31.795 4.41C32.7325 4.7725 33.395 5.205 34.0987 5.90375C34.7962 6.60375 35.23 7.26875 35.5912 8.205C35.865 8.90875 36.1913 9.9675 36.28 11.9175C36.375 14.0263 36.3963 14.66 36.3963 20C36.3963 25.34 36.3712 25.975 36.2737 28.0837C36.1712 30.0337 35.8463 31.0913 35.5713 31.795C35.1988 32.7325 34.7738 33.395 34.0738 34.0987C33.4272 34.7606 32.6416 35.2704 31.7738 35.5912C31.0738 35.865 29.9987 36.1913 28.0487 36.28C25.925 36.375 25.3 36.3963 19.95 36.3963C14.5987 36.3963 13.9737 36.3712 11.8512 36.2737C9.9 36.1712 8.825 35.8463 8.125 35.5713C7.17625 35.1988 6.525 34.7738 5.82625 34.0738C5.15723 33.4316 4.64412 32.6449 4.32625 31.7738C4.05125 31.0738 3.72875 29.9987 3.62625 28.0487C3.55125 25.9487 3.525 25.3 3.525 19.975C3.525 14.6487 3.55125 13.9987 3.62625 11.8737C3.72875 9.92375 4.05125 8.85 4.32625 8.15C4.67625 7.2 5.125 6.55 5.82625 5.84875C6.525 5.15 7.17625 4.7 8.125 4.35C8.825 4.075 9.87625 3.75 11.8263 3.65C13.9513 3.575 14.5762 3.55 19.925 3.55L20 3.6ZM20 9.73C18.6513 9.72984 17.3157 9.99537 16.0696 10.5114C14.8236 11.0275 13.6913 11.784 12.7376 12.7376C11.784 13.6913 11.0275 14.8236 10.5114 16.0696C9.99537 17.3157 9.72984 18.6513 9.73 20C9.73 25.675 14.33 30.27 20 30.27C25.675 30.27 30.27 25.67 30.27 20C30.27 14.325 25.67 9.73 20 9.73ZM20 26.6675C19.1244 26.6677 18.2574 26.4953 17.4485 26.1603C16.6395 25.8252 15.9045 25.3341 15.2854 24.7149C14.6664 24.0957 14.1754 23.3606 13.8405 22.5516C13.5056 21.7426 13.3334 20.8756 13.3337 20C13.3336 19.1245 13.5059 18.2576 13.8409 17.4487C14.1758 16.6399 14.6668 15.9049 15.2859 15.2859C15.9049 14.6668 16.6399 14.1758 17.4487 13.8409C18.2576 13.5059 19.1245 13.3336 20 13.3337C20.8755 13.3336 21.7424 13.5059 22.5513 13.8409C23.3601 14.1758 24.0951 14.6668 24.7141 15.2859C25.3332 15.9049 25.8242 16.6399 26.1591 17.4487C26.4941 18.2576 26.6664 19.1245 26.6663 20C26.6664 20.8755 26.4941 21.7424 26.1591 22.5513C25.8242 23.3601 25.3332 24.0951 24.7141 24.7141C24.0951 25.3332 23.3601 25.8242 22.5513 26.1591C21.7424 26.4941 20.8755 26.6677 20 26.6675ZM33.0763 9.325C33.0763 10.65 32 11.725 30.6763 11.725C29.3513 11.725 28.2763 10.6488 28.2763 9.325C28.2964 8.70189 28.558 8.11102 29.0059 7.67736C29.4538 7.24369 30.0528 7.00122 30.6763 7.00122C31.2997 7.00122 31.8987 7.24369 32.3466 7.67736C32.7945 8.11102 33.0561 8.70189 33.0763 9.325Z" fill="#FDB913"/>
</g>
<defs>
<clipPath id="clip0_280_199">
<rect width="40" height="40" fill="white"/>
</clipPath>
</defs>
</svg>
