<svg width="40" height="40" viewBox="0 0 40 40" fill="none" xmlns="http://www.w3.org/2000/svg">
<g clip-path="url(#clip0_153_91)">
<path d="M33.3333 40H6.66667C6.22917 40 5.79688 39.9557 5.36719 39.8698C4.9375 39.7839 4.52083 39.6589 4.11719 39.4896C3.71354 39.3229 3.32813 39.1172 2.96354 38.875C2.60156 38.6302 2.26302 38.3542 1.95573 38.0443C1.64583 37.737 1.36979 37.3984 1.125 37.0365C0.882813 36.6719 0.677083 36.2865 0.510417 35.8828C0.341146 35.4792 0.216146 35.0625 0.130208 34.6328C0.0442708 34.2031 0 33.7708 0 33.3333V6.66667C0 6.22917 0.0442708 5.79688 0.130208 5.36719C0.216146 4.9375 0.341146 4.52083 0.510417 4.11719C0.677083 3.71354 0.882813 3.32813 1.125 2.96354C1.36979 2.60156 1.64583 2.26302 1.95573 1.95573C2.26302 1.64583 2.60156 1.36979 2.96354 1.125C3.32813 0.882813 3.71354 0.677083 4.11719 0.510417C4.52083 0.341146 4.9375 0.216146 5.36719 0.130208C5.79688 0.0442708 6.22917 0 6.66667 0H33.3333C33.7708 0 34.2031 0.0442708 34.6328 0.130208C35.0625 0.216146 35.4792 0.341146 35.8828 0.510417C36.2865 0.677083 36.6719 0.882813 37.0365 1.125C37.3984 1.36979 37.737 1.64583 38.0443 1.95573C38.3542 2.26302 38.6302 2.60156 38.875 2.96354C39.1172 3.32813 39.3229 3.71354 39.4896 4.11719C39.6589 4.52083 39.7839 4.9375 39.8698 5.36719C39.9557 5.79688 40 6.22917 40 6.66667V33.3333C40 33.7708 39.9557 34.2031 39.8698 34.6328C39.7839 35.0625 39.6589 35.4792 39.4896 35.8828C39.3229 36.2865 39.1172 36.6719 38.875 37.0365C38.6302 37.3984 38.3542 37.737 38.0443 38.0443C37.737 38.3542 37.3984 38.6302 37.0365 38.875C36.6719 39.1172 36.2865 39.3229 35.8828 39.4896C35.4792 39.6589 35.0625 39.7839 34.6328 39.8698C34.2031 39.9557 33.7708 40 33.3333 40ZM6.66667 4.44531C6.3724 4.44531 6.08854 4.5 5.8151 4.61458C5.54427 4.72656 5.30469 4.88802 5.09635 5.09635C4.88802 5.30469 4.72656 5.54427 4.61458 5.8151C4.5 6.08854 4.44531 6.3724 4.44531 6.66667V33.3333C4.44531 33.6276 4.5 33.9115 4.61458 34.1849C4.72656 34.4557 4.88802 34.6953 5.09635 34.9036C5.30469 35.112 5.54427 35.2734 5.8151 35.3854C6.08854 35.5 6.3724 35.5547 6.66667 35.5547H33.3333C33.6276 35.5547 33.9115 35.5 34.1849 35.3854C34.4557 35.2734 34.6953 35.112 34.9036 34.9036C35.112 34.6953 35.2734 34.4557 35.3854 34.1849C35.5 33.9115 35.5547 33.6276 35.5547 33.3333V6.66667C35.5547 6.3724 35.5 6.08854 35.3854 5.8151C35.2734 5.54427 35.112 5.30469 34.9036 5.09635C34.6953 4.88802 34.4557 4.72656 34.1849 4.61458C33.9115 4.5 33.6276 4.44531 33.3333 4.44531H6.66667Z" fill="#FF7323"/>
<path d="M11.1121 31.112C10.8179 31.112 10.534 31.0547 10.2606 30.9427C9.98975 30.8281 9.74756 30.6693 9.53923 30.4609C9.33089 30.2526 9.17204 30.0104 9.05746 29.7396C8.94548 29.4661 8.88818 29.1823 8.88818 28.888V17.7786C8.88818 17.4844 8.94548 17.2005 9.05746 16.9271C9.17204 16.6562 9.33089 16.4141 9.53923 16.2057C9.74756 15.9974 9.98975 15.8385 10.2606 15.724C10.534 15.612 10.8179 15.5547 11.1121 15.5547C11.4064 15.5547 11.6903 15.612 11.9611 15.724C12.2345 15.8385 12.4741 15.9974 12.6825 16.2057C12.8908 16.4141 13.0522 16.6562 13.1642 16.9271C13.2762 17.2005 13.3335 17.4844 13.3335 17.7786V28.888C13.3335 29.1823 13.2762 29.4661 13.1642 29.7396C13.0522 30.0104 12.8908 30.2526 12.6825 30.4609C12.4741 30.6693 12.2345 30.8281 11.9611 30.9427C11.6903 31.0547 11.4064 31.112 11.1121 31.112Z" fill="#FF7323"/>
<path d="M11.1118 13.3567C10.8149 13.3567 10.5311 13.2994 10.2576 13.1874C9.98682 13.0754 9.74463 12.9166 9.5363 12.7083C9.32536 12.4999 9.1639 12.2603 9.04932 11.9869C8.93734 11.7161 8.88005 11.4322 8.87744 11.1379C8.87744 10.8411 8.93213 10.5572 9.04411 10.2838C9.15609 10.0103 9.31494 9.77076 9.52327 9.55982C9.729 9.35149 9.96859 9.18743 10.242 9.07284C10.5129 8.96086 10.7967 8.90097 11.0936 8.90097C11.3879 8.89836 11.6717 8.95305 11.9451 9.06503C12.2186 9.17441 12.4608 9.33586 12.6691 9.54159C12.88 9.74993 13.0415 9.98951 13.1587 10.2603C13.2733 10.5338 13.3306 10.815 13.3332 11.1119V11.1327C13.3332 11.427 13.2759 11.7109 13.1639 11.9843C13.0519 12.2551 12.8905 12.4973 12.6821 12.7057C12.4738 12.914 12.2342 13.0728 11.9608 13.1874C11.6899 13.2994 11.4061 13.3567 11.1118 13.3567Z" fill="#FF7323"/>
<path d="M20.0002 31.112C19.7059 31.112 19.422 31.0547 19.1486 30.9427C18.8778 30.8281 18.6382 30.6693 18.4299 30.4609C18.2215 30.2526 18.0601 30.0104 17.9481 29.7396C17.8335 29.4661 17.7788 29.1823 17.7788 28.888V17.7786C17.7788 17.4844 17.8335 17.2005 17.9481 16.9271C18.0601 16.6562 18.2215 16.4141 18.4299 16.2057C18.6382 15.9974 18.8778 15.8385 19.1486 15.724C19.422 15.612 19.7059 15.5547 20.0002 15.5547C20.2944 15.5547 20.5783 15.612 20.8517 15.724C21.1226 15.8385 21.3621 15.9974 21.5705 16.2057C21.7788 16.4141 21.9403 16.6562 22.0522 16.9271C22.1668 17.2005 22.2215 17.4844 22.2215 17.7786V28.888C22.2215 29.1823 22.1668 29.4661 22.0522 29.7396C21.9403 30.0104 21.7788 30.2526 21.5705 30.4609C21.3621 30.6693 21.1226 30.8281 20.8517 30.9427C20.5783 31.0547 20.2944 31.112 20.0002 31.112Z" fill="#FF7323"/>
<path d="M28.8882 31.112C28.5939 31.112 28.3101 31.0547 28.0392 30.9427C27.7658 30.8281 27.5262 30.6693 27.3179 30.4609C27.1095 30.2526 26.9481 30.0104 26.8361 29.7396C26.7241 29.4661 26.6668 29.1823 26.6668 28.888V22.2214C26.6668 21.9271 26.6095 21.6432 26.4976 21.3724C26.3856 21.099 26.2241 20.8594 26.0158 20.651C25.8075 20.4427 25.5679 20.2812 25.2944 20.1693C25.0236 20.0573 24.7397 20 24.4455 20C24.1512 20 23.8674 20.0573 23.5939 20.1693C23.3231 20.2812 23.0809 20.4427 22.8726 20.651C22.6642 20.8594 22.5054 21.099 22.3908 21.3724C22.2788 21.6432 22.2215 21.9271 22.2215 22.2214C22.2215 22.5156 22.1668 22.7995 22.0522 23.0729C21.9403 23.3437 21.7788 23.5859 21.5705 23.7943C21.3621 24.0026 21.1226 24.1615 20.8517 24.276C20.5783 24.388 20.2944 24.4453 20.0002 24.4453C19.7059 24.4453 19.422 24.388 19.1486 24.276C18.8778 24.1615 18.6382 24.0026 18.4299 23.7943C18.2215 23.5859 18.0601 23.3437 17.9481 23.0729C17.8335 22.7995 17.7788 22.5156 17.7788 22.2214C17.7788 21.7839 17.8205 21.3516 17.9064 20.9219C17.9924 20.4922 18.1173 20.0755 18.2866 19.6719C18.4533 19.2656 18.659 18.8828 18.9012 18.5182C19.1434 18.1536 19.422 17.8177 19.7293 17.5078C20.0392 17.1979 20.3778 16.9219 20.7397 16.6797C21.1043 16.4349 21.4897 16.2318 21.8934 16.0625C22.297 15.8958 22.7137 15.7682 23.1434 15.6849C23.5731 15.599 24.008 15.5547 24.4455 15.5547C24.883 15.5547 25.3153 15.599 25.745 15.6849C26.1746 15.7682 26.5913 15.8958 26.995 16.0625C27.4012 16.2318 27.784 16.4349 28.1486 16.6797C28.5132 16.9219 28.8491 17.1979 29.159 17.5078C29.4689 17.8177 29.745 18.1536 29.9871 18.5182C30.2319 18.8828 30.4351 19.2656 30.6043 19.6719C30.771 20.0755 30.8986 20.4922 30.9819 20.9219C31.0679 21.3516 31.1121 21.7839 31.1121 22.2214V28.888C31.1121 29.1823 31.0549 29.4661 30.9429 29.7396C30.8283 30.0104 30.6694 30.2526 30.4611 30.4609C30.2528 30.6693 30.0106 30.8281 29.7397 30.9427C29.4663 31.0547 29.1825 31.112 28.8882 31.112Z" fill="#FF7323"/>
</g>
<defs>
<clipPath id="clip0_153_91">
<rect width="40" height="40" fill="white"/>
</clipPath>
</defs>
</svg>
