<svg width="40" height="40" viewBox="0 0 40 40" fill="none" xmlns="http://www.w3.org/2000/svg">
<g clip-path="url(#clip0_280_192)">
<path d="M33.3333 40H6.66667C6.22917 40 5.79688 39.9557 5.36719 39.8698C4.9375 39.7839 4.52083 39.6589 4.11719 39.4896C3.71354 39.3229 3.32813 39.1172 2.96354 38.875C2.60156 38.6302 2.26302 38.3542 1.95573 38.0443C1.64583 37.737 1.36979 37.3984 1.125 37.0365C0.882813 36.6719 0.677083 36.2865 0.510417 35.8828C0.341146 35.4792 0.216146 35.0625 0.130208 34.6328C0.0442708 34.2031 0 33.7708 0 33.3333V6.66667C0 6.22917 0.0442708 5.79688 0.130208 5.36719C0.216146 4.9375 0.341146 4.52083 0.510417 4.11719C0.677083 3.71354 0.882813 3.32813 1.125 2.96354C1.36979 2.60156 1.64583 2.26302 1.95573 1.95573C2.26302 1.64583 2.60156 1.36979 2.96354 1.125C3.32813 0.882813 3.71354 0.677083 4.11719 0.510417C4.52083 0.341146 4.9375 0.216146 5.36719 0.130208C5.79688 0.0442708 6.22917 0 6.66667 0H33.3333C33.7708 0 34.2031 0.0442708 34.6328 0.130208C35.0625 0.216146 35.4792 0.341146 35.8828 0.510417C36.2865 0.677083 36.6719 0.882813 37.0365 1.125C37.3984 1.36979 37.737 1.64583 38.0443 1.95573C38.3542 2.26302 38.6302 2.60156 38.875 2.96354C39.1172 3.32813 39.3229 3.71354 39.4896 4.11719C39.6589 4.52083 39.7839 4.9375 39.8698 5.36719C39.9557 5.79688 40 6.22917 40 6.66667V33.3333C40 33.7708 39.9557 34.2031 39.8698 34.6328C39.7839 35.0625 39.6589 35.4792 39.4896 35.8828C39.3229 36.2865 39.1172 36.6719 38.875 37.0365C38.6302 37.3984 38.3542 37.737 38.0443 38.0443C37.737 38.3542 37.3984 38.6302 37.0365 38.875C36.6719 39.1172 36.2865 39.3229 35.8828 39.4896C35.4792 39.6589 35.0625 39.7839 34.6328 39.8698C34.2031 39.9557 33.7708 40 33.3333 40ZM6.66667 4.44531C6.3724 4.44531 6.08854 4.5 5.8151 4.61458C5.54427 4.72656 5.30469 4.88802 5.09635 5.09635C4.88802 5.30469 4.72656 5.54427 4.61458 5.8151C4.5 6.08854 4.44531 6.3724 4.44531 6.66667V33.3333C4.44531 33.6276 4.5 33.9115 4.61458 34.1849C4.72656 34.4557 4.88802 34.6953 5.09635 34.9036C5.30469 35.112 5.54427 35.2734 5.8151 35.3854C6.08854 35.5 6.3724 35.5547 6.66667 35.5547H33.3333C33.6276 35.5547 33.9115 35.5 34.1849 35.3854C34.4557 35.2734 34.6953 35.112 34.9036 34.9036C35.112 34.6953 35.2734 34.4557 35.3854 34.1849C35.5 33.9115 35.5547 33.6276 35.5547 33.3333V6.66667C35.5547 6.3724 35.5 6.08854 35.3854 5.8151C35.2734 5.54427 35.112 5.30469 34.9036 5.09635C34.6953 4.88802 34.4557 4.72656 34.1849 4.61458C33.9115 4.5 33.6276 4.44531 33.3333 4.44531H6.66667Z" fill="#FDB913"/>
<path d="M11.1117 31.112C10.8174 31.112 10.5335 31.0547 10.2601 30.9427C9.98926 30.8281 9.74707 30.6693 9.53874 30.4609C9.3304 30.2526 9.17155 30.0104 9.05697 29.7396C8.94499 29.4661 8.8877 29.1823 8.8877 28.888V17.7786C8.8877 17.4844 8.94499 17.2005 9.05697 16.9271C9.17155 16.6562 9.3304 16.4141 9.53874 16.2057C9.74707 15.9974 9.98926 15.8385 10.2601 15.724C10.5335 15.612 10.8174 15.5547 11.1117 15.5547C11.4059 15.5547 11.6898 15.612 11.9606 15.724C12.234 15.8385 12.4736 15.9974 12.682 16.2057C12.8903 16.4141 13.0518 16.6562 13.1637 16.9271C13.2757 17.2005 13.333 17.4844 13.333 17.7786V28.888C13.333 29.1823 13.2757 29.4661 13.1637 29.7396C13.0518 30.0104 12.8903 30.2526 12.682 30.4609C12.4736 30.6693 12.234 30.8281 11.9606 30.9427C11.6898 31.0547 11.4059 31.112 11.1117 31.112Z" fill="#FDB913"/>
<path d="M11.1123 13.3568C10.8154 13.3568 10.5316 13.2995 10.2581 13.1875C9.9873 13.0755 9.74512 12.9167 9.53678 12.7083C9.32585 12.5 9.16439 12.2604 9.0498 11.987C8.93783 11.7161 8.88053 11.4323 8.87793 11.138C8.87793 10.8411 8.93262 10.5573 9.0446 10.2838C9.15658 10.0104 9.31543 9.77082 9.52376 9.55988C9.72949 9.35155 9.96908 9.18749 10.2425 9.0729C10.5133 8.96093 10.7972 8.90103 11.0941 8.90103C11.3883 8.89842 11.6722 8.95311 11.9456 9.06509C12.2191 9.17447 12.4613 9.33593 12.6696 9.54165C12.8805 9.74999 13.042 9.98957 13.1592 10.2604C13.2738 10.5338 13.3311 10.8151 13.3337 11.112V11.1328C13.3337 11.4271 13.2764 11.7109 13.1644 11.9844C13.0524 12.2552 12.891 12.4974 12.6826 12.7057C12.4743 12.9141 12.2347 13.0729 11.9613 13.1875C11.6904 13.2995 11.4066 13.3568 11.1123 13.3568Z" fill="#FDB913"/>
<path d="M19.9997 31.112C19.7054 31.112 19.4215 31.0547 19.1481 30.9427C18.8773 30.8281 18.6377 30.6693 18.4294 30.4609C18.221 30.2526 18.0596 30.0104 17.9476 29.7396C17.833 29.4661 17.7783 29.1823 17.7783 28.888V17.7786C17.7783 17.4844 17.833 17.2005 17.9476 16.9271C18.0596 16.6562 18.221 16.4141 18.4294 16.2057C18.6377 15.9974 18.8773 15.8385 19.1481 15.724C19.4215 15.612 19.7054 15.5547 19.9997 15.5547C20.2939 15.5547 20.5778 15.612 20.8512 15.724C21.1221 15.8385 21.3617 15.9974 21.57 16.2057C21.7783 16.4141 21.9398 16.6562 22.0518 16.9271C22.1663 17.2005 22.221 17.4844 22.221 17.7786V28.888C22.221 29.1823 22.1663 29.4661 22.0518 29.7396C21.9398 30.0104 21.7783 30.2526 21.57 30.4609C21.3617 30.6693 21.1221 30.8281 20.8512 30.9427C20.5778 31.0547 20.2939 31.112 19.9997 31.112Z" fill="#FDB913"/>
<path d="M28.8877 31.112C28.5934 31.112 28.3096 31.0547 28.0387 30.9427C27.7653 30.8281 27.5257 30.6693 27.3174 30.4609C27.109 30.2526 26.9476 30.0104 26.8356 29.7396C26.7236 29.4661 26.6663 29.1823 26.6663 28.888V22.2214C26.6663 21.9271 26.609 21.6432 26.4971 21.3724C26.3851 21.099 26.2236 20.8594 26.0153 20.651C25.807 20.4427 25.5674 20.2812 25.2939 20.1693C25.0231 20.0573 24.7393 20 24.445 20C24.1507 20 23.8669 20.0573 23.5934 20.1693C23.3226 20.2812 23.0804 20.4427 22.8721 20.651C22.6637 20.8594 22.5049 21.099 22.3903 21.3724C22.2783 21.6432 22.221 21.9271 22.221 22.2214C22.221 22.5156 22.1663 22.7995 22.0518 23.0729C21.9398 23.3437 21.7783 23.5859 21.57 23.7943C21.3617 24.0026 21.1221 24.1615 20.8512 24.276C20.5778 24.388 20.2939 24.4453 19.9997 24.4453C19.7054 24.4453 19.4215 24.388 19.1481 24.276C18.8773 24.1615 18.6377 24.0026 18.4294 23.7943C18.221 23.5859 18.0596 23.3437 17.9476 23.0729C17.833 22.7995 17.7783 22.5156 17.7783 22.2214C17.7783 21.7839 17.82 21.3516 17.9059 20.9219C17.9919 20.4922 18.1169 20.0755 18.2861 19.6719C18.4528 19.2656 18.6585 18.8828 18.9007 18.5182C19.1429 18.1536 19.4215 17.8177 19.7288 17.5078C20.0387 17.1979 20.3773 16.9219 20.7393 16.6797C21.1038 16.4349 21.4893 16.2318 21.8929 16.0625C22.2965 15.8958 22.7132 15.7682 23.1429 15.6849C23.5726 15.599 24.0075 15.5547 24.445 15.5547C24.8825 15.5547 25.3148 15.599 25.7445 15.6849C26.1742 15.7682 26.5908 15.8958 26.9945 16.0625C27.4007 16.2318 27.7835 16.4349 28.1481 16.6797C28.5127 16.9219 28.8486 17.1979 29.1585 17.5078C29.4684 17.8177 29.7445 18.1536 29.9867 18.5182C30.2314 18.8828 30.4346 19.2656 30.6038 19.6719C30.7705 20.0755 30.8981 20.4922 30.9814 20.9219C31.0674 21.3516 31.1117 21.7839 31.1117 22.2214V28.888C31.1117 29.1823 31.0544 29.4661 30.9424 29.7396C30.8278 30.0104 30.6689 30.2526 30.4606 30.4609C30.2523 30.6693 30.0101 30.8281 29.7393 30.9427C29.4658 31.0547 29.182 31.112 28.8877 31.112Z" fill="#FDB913"/>
</g>
<defs>
<clipPath id="clip0_280_192">
<rect width="40" height="40" fill="white"/>
</clipPath>
</defs>
</svg>
