<svg width="53" height="53" viewBox="0 0 53 53" fill="none" xmlns="http://www.w3.org/2000/svg">
<path d="M26.875 26.1016L36.625 16.3516" stroke="#FDB913" stroke-width="4" stroke-miterlimit="10" stroke-linecap="round" stroke-linejoin="round"/>
<path d="M49.625 9.85156H43.125V3.35156L36.625 9.85156V16.3516H43.125L49.625 9.85156Z" stroke="#FDB913" stroke-width="4" stroke-miterlimit="10" stroke-linecap="round" stroke-linejoin="round"/>
<path d="M26.875 35.8516C32.2597 35.8516 36.625 31.4863 36.625 26.1016C36.625 20.7168 32.2597 16.3516 26.875 16.3516C21.4902 16.3516 17.125 20.7168 17.125 26.1016C17.125 31.4863 21.4902 35.8516 26.875 35.8516Z" stroke="#FDB913" stroke-width="4" stroke-miterlimit="10" stroke-linecap="round" stroke-linejoin="round"/>
<path d="M44.75 14.7266C46.8625 17.9766 48 21.8766 48 26.1016C48 37.8016 38.575 47.2266 26.875 47.2266C15.175 47.2266 5.74997 37.8016 5.74997 26.1016C5.74997 14.4016 15.175 4.97656 26.875 4.97656C31.1 4.97656 35 6.11406 38.25 8.22656" stroke="#FDB913" stroke-width="4" stroke-miterlimit="10" stroke-linecap="round" stroke-linejoin="round"/>
</svg>
