<svg width="243" height="243" viewBox="0 0 243 243" fill="none" xmlns="http://www.w3.org/2000/svg">
<path fill-rule="evenodd" clip-rule="evenodd" d="M0 114.353V228.706H42.8824V114.353H0ZM28.5882 214.412H13.9939V185.523H28.5882V214.412ZM28.8884 171.529H14.0082V142.641H28.8884V171.529Z" fill="#434343"/>
<path fill-rule="evenodd" clip-rule="evenodd" d="M128.647 71.4706V42.8824H114.353V0H100.059V42.8824H85.765V71.4706H57.1768V228.706H157.236V71.4706H128.647ZM85.765 214.412H71.4709V185.824H85.765V214.412ZM85.765 172.13H71.4709V142.941H85.765V172.13ZM85.765 129.247H71.4709V100.059H85.765V129.247ZM114.353 214.412H100.059V185.824H114.353V214.412ZM114.353 172.13H100.059V142.941H114.353V172.13ZM114.353 129.247H100.059V100.059H114.353V129.247ZM142.941 214.412H128.647V185.824H142.941V214.412ZM142.941 172.13H128.647V142.941H142.941V172.13ZM142.941 129.247H128.647V100.059H142.941V129.247Z" fill="#434343"/>
<path fill-rule="evenodd" clip-rule="evenodd" d="M171.529 100.059V228.706H228.706V157.235L171.529 100.059ZM200.561 215.298H185.823V199.66H200.561V215.298ZM200.561 186.71H185.823V171.072H200.561V186.71ZM200.561 158.122H185.823V142.484H200.561V158.122Z" fill="#434343"/>
</svg>
