<svg width="35" height="35" viewBox="0 0 35 35" fill="none" xmlns="http://www.w3.org/2000/svg">
<path d="M34.8667 2.32084V16.2484C34.8667 16.6449 34.5439 16.9669 34.1435 16.9669H15.0771C14.678 16.9669 14.354 16.6449 14.354 16.2484V15.1483L15.8003 14.1849V15.5299H33.4191V3.03811H15.7991V8.29512C15.7353 8.3436 15.6664 8.38587 15.6064 8.44056L15.4037 8.57979C15.1597 7.94582 14.7881 7.44609 14.354 7.03588V2.32084C14.354 1.9243 14.6793 1.60234 15.0771 1.60234H34.1435C34.5439 1.60234 34.8667 1.92306 34.8667 2.32084ZM17.7947 11.7609L18.6605 11.1841H18.6592C18.6605 11.1791 18.663 11.1791 18.6655 11.1754C19.1059 10.7415 19.1734 10.0964 18.9007 9.58793L25.9059 4.86544L25.5881 4.39929L18.5241 9.16031C18.3026 9.0012 18.0549 8.90051 17.7947 8.8918C17.4243 8.87937 17.0477 9.00368 16.765 9.28586C16.765 9.28586 16.7587 9.29332 16.7562 9.29332L16.5835 9.41266L15.0146 10.4767V10.0243C14.7231 6.58215 10.7081 6.63311 10.7081 6.63311H8.96899L7.50764 9.02233L6.03878 6.63436H4.37099C-0.15945 6.71889 0.000698251 10.0243 0.000698251 10.0243V17.7389H0.00320057C0.00445173 17.7587 0.000698251 17.7824 0.000698251 17.7985C0.000698251 18.5332 0.5975 19.1237 1.33443 19.1237C2.06886 19.1237 2.66566 18.5307 2.66566 17.7985C2.66566 17.7824 2.66566 17.7587 2.66316 17.7389H2.66566V10.6035H3.49893L3.48892 33.0823C3.48892 34.0705 4.29717 34.8736 5.28809 34.8736C6.28276 34.8736 7.0885 34.0705 7.0885 33.0823V18.5755H7.8905V33.0984L7.90551 33.1146C7.91802 34.0855 8.71376 34.8736 9.69717 34.8736C10.6843 34.8736 11.4876 34.0743 11.4876 33.0935L11.4826 10.5662H12.3496V12.9132C12.3496 12.9157 12.3496 12.9219 12.3496 12.9244C12.3496 13.6541 12.9464 14.2483 13.6796 14.2483C13.8961 14.2483 14.09 14.1874 14.2739 14.0929L14.2802 14.1016L16.5823 12.5676L17.7947 11.7609ZM7.48137 6.05881C9.16543 6.05881 10.5304 4.7026 10.5304 3.0294C10.5304 1.35621 9.16543 0 7.48137 0C5.79731 0 4.4323 1.35745 4.4323 3.0294C4.4323 4.70136 5.79731 6.05881 7.48137 6.05881Z" fill="#FF7323"/>
</svg>
