<svg width="20" height="20" viewBox="0 0 20 20" fill="none" xmlns="http://www.w3.org/2000/svg">
<path d="M11.9425 13.2835L13.0508 12.1751C13.2214 12.0025 13.4245 11.8654 13.6483 11.7719C13.8722 11.6784 14.1124 11.6303 14.355 11.6303C14.5977 11.6303 14.8378 11.6784 15.0617 11.7719C15.2856 11.8654 15.4887 12.0025 15.6592 12.1751L16.9592 13.4752C17.1317 13.6457 17.2688 13.8486 17.3623 14.0725C17.4558 14.2964 17.504 14.5367 17.504 14.7793C17.504 15.022 17.4558 15.2622 17.3623 15.4861C17.2688 15.71 17.1317 15.9129 16.9592 16.0834L16.3675 16.6834C15.9598 17.095 15.4326 17.3675 14.8609 17.4618C14.2892 17.556 13.7024 17.4675 13.1842 17.2085C8.72441 14.9127 5.09189 11.283 2.79252 6.8252C2.53329 6.30638 2.44528 5.71872 2.54111 5.14673C2.63694 4.57473 2.91169 4.0478 3.32587 3.64181L3.9175 3.04183C4.26411 2.69731 4.73297 2.50391 5.22167 2.50391C5.71037 2.50391 6.17923 2.69731 6.52584 3.04183L7.83418 4.35021C8.17869 4.69683 8.37208 5.16563 8.37208 5.65434C8.37208 6.14304 8.17869 6.61184 7.83418 6.95846L6.72583 8.06686C7.45867 9.05812 8.26364 9.99387 9.13416 10.8667C9.99966 11.7337 10.9302 12.5334 11.9175 13.2585L11.9425 13.2835Z" stroke="#FF7323" stroke-width="2" stroke-linecap="round" stroke-linejoin="round"/>
<path d="M15.1758 7.36678C15.0482 6.74735 14.7443 6.17806 14.3008 5.72717C13.8574 5.27628 13.293 4.96295 12.6758 4.82507" stroke="#FF7323" stroke-width="2" stroke-linecap="round" stroke-linejoin="round"/>
<path d="M18.3333 6.2583C18.0236 5.16599 17.44 4.17103 16.6379 3.36748C15.8358 2.56391 14.8418 1.97836 13.75 1.66663" stroke="#FF7323" stroke-width="2" stroke-linecap="round" stroke-linejoin="round"/>
</svg>
