<svg width="20" height="20" viewBox="0 0 20 20" fill="none" xmlns="http://www.w3.org/2000/svg">
<path d="M11.942 13.2835L13.0503 12.1751C13.2209 12.0025 13.424 11.8653 13.6478 11.7718C13.8718 11.6783 14.1119 11.6303 14.3545 11.6303C14.5972 11.6303 14.8373 11.6783 15.0613 11.7718C15.2851 11.8653 15.4882 12.0025 15.6587 12.1751L16.9587 13.4752C17.1313 13.6457 17.2683 13.8486 17.3618 14.0725C17.4553 14.2963 17.5035 14.5367 17.5035 14.7793C17.5035 15.0219 17.4553 15.2622 17.3618 15.4861C17.2683 15.7099 17.1313 15.9128 16.9587 16.0833L16.367 16.6833C15.9593 17.095 15.4321 17.3675 14.8604 17.4618C14.2888 17.556 13.7019 17.4674 13.1837 17.2084C8.72392 14.9127 5.09141 11.283 2.79203 6.82517C2.53281 6.30635 2.44479 5.71869 2.54062 5.1467C2.63646 4.5747 2.91121 4.04777 3.32538 3.64178L3.91701 3.0418C4.26362 2.69728 4.73248 2.50388 5.22118 2.50388C5.70988 2.50388 6.17874 2.69728 6.52535 3.0418L7.83369 4.35018C8.17821 4.6968 8.37159 5.1656 8.37159 5.65431C8.37159 6.14301 8.17821 6.61181 7.83369 6.95843L6.72534 8.06683C7.45818 9.05809 8.26315 9.99384 9.13367 10.8667C9.99917 11.7337 10.9297 12.5333 11.917 13.2585L11.942 13.2835Z" stroke="#FDB913" stroke-width="2" stroke-linecap="round" stroke-linejoin="round"/>
<path d="M15.1758 7.36675C15.0482 6.74732 14.7443 6.17803 14.3008 5.72714C13.8574 5.27625 13.293 4.96292 12.6758 4.82504" stroke="#FDB913" stroke-width="2" stroke-linecap="round" stroke-linejoin="round"/>
<path d="M18.3333 6.25833C18.0236 5.16602 17.44 4.17106 16.6379 3.36751C15.8358 2.56394 14.8418 1.97839 13.75 1.66666" stroke="#FDB913" stroke-width="2" stroke-linecap="round" stroke-linejoin="round"/>
</svg>
