<svg width="36" height="36" viewBox="0 0 36 36" fill="none" xmlns="http://www.w3.org/2000/svg">
<g clip-path="url(#clip0_53_562)">
<path d="M27.6398 19.5654C27.6281 19.5678 27.6164 19.5678 27.6047 19.5678C27.2813 19.5678 27.0117 19.317 26.993 18.9889C26.8453 16.4975 25.8188 14.1279 24.1031 12.3186C22.3875 10.5092 20.0766 9.3584 17.5945 9.07715C17.2594 9.03965 17.018 8.73496 17.0555 8.39746C17.093 8.0623 17.3977 7.81856 17.7328 7.8584C20.5008 8.17012 23.0789 9.45449 24.9938 11.4748C26.9086 13.4928 28.0523 16.1365 28.2164 18.9186C28.2375 19.2561 27.9797 19.5467 27.6398 19.5654ZM17.4305 12.2857C17.4703 11.9506 17.7727 11.7092 18.1102 11.7467C19.7578 11.9342 21.2953 12.6982 22.4344 13.9006C23.5734 15.1029 24.2555 16.6779 24.3539 18.3326C24.3727 18.6725 24.1148 18.9631 23.7773 18.9818C23.7656 18.9842 23.7539 18.9842 23.7398 18.9842C23.4188 18.9842 23.1469 18.7311 23.1281 18.4053C23.0484 17.0389 22.4836 15.7381 21.5438 14.7443C20.6016 13.7529 19.3336 13.1201 17.9719 12.9654C17.6367 12.9279 17.393 12.6232 17.4305 12.2857ZM26.6531 27.4826C26.6344 27.5014 25.9219 28.174 25.9031 28.1928C24.5836 29.4607 22.5117 29.7139 20.7891 29.3107C20.1609 29.1631 19.5492 28.9521 18.9586 28.6943C16.2891 27.5342 13.7555 25.4834 11.7211 23.3248C9.675 21.1779 7.7625 18.5389 6.74531 15.8107C6.52031 15.2061 6.34219 14.585 6.22969 13.9498C5.92031 12.2084 6.28125 10.1529 7.61953 8.90371C7.63828 8.88496 8.34844 8.20996 8.36953 8.19121C9.69375 7.02871 10.8281 8.50293 11.8828 9.63731C12.7852 10.6076 14.3016 12.2014 14.0508 13.6592C13.9102 14.4678 13.0523 15.0584 12.7523 15.8529C12.3727 16.8654 12.5508 17.8732 13.1906 18.7381C13.6172 19.317 14.1398 19.9334 14.6953 20.5053C15.2367 21.0912 15.825 21.6443 16.3805 22.1037C17.2102 22.7881 18.2063 23.0201 19.2375 22.6943C20.0461 22.4389 20.6836 21.6139 21.4969 21.5154C22.9664 21.342 24.4781 22.9428 25.3969 23.8943C26.4727 25.01 27.8859 26.2193 26.6531 27.4826ZM18 -0.00488281C8.06016 -0.00488281 0 8.05293 0 17.9928C0 27.9326 8.06016 35.9928 18 35.9928C27.9398 35.9928 35.9977 27.9326 35.9977 17.9928C35.9977 8.05293 27.9398 -0.00488281 18 -0.00488281Z" fill="#FF7323"/>
</g>
<defs>
<clipPath id="clip0_53_562">
<rect width="36" height="36" fill="white"/>
</clipPath>
</defs>
</svg>
