<svg width="35" height="34" viewBox="0 0 35 34" fill="none" xmlns="http://www.w3.org/2000/svg">
<path d="M35 20.2681V33.0065H7.15903V28.651H16.13V24.7307H24.5667V20.2681H35ZM15.441 2.29349C15.441 3.56019 16.486 4.58697 17.7751 4.58697C19.0643 4.58697 20.1093 3.56019 20.1093 2.29349C20.1093 1.02679 19.0643 0 17.7751 0C16.486 0 15.441 1.02679 15.441 2.29349ZM26.0993 13.3877C25.8743 13.8989 25.2557 14.1061 24.7354 13.8712L20.4046 11.8678C20.1515 11.7573 19.9406 11.5362 19.8563 11.2738L19.125 9.24286L18.1126 14.2189L21.5283 14.288C22.2594 14.3017 22.836 14.9097 22.8219 15.6281L22.6392 22.5878C22.6251 23.3062 22.0206 23.8727 21.3033 23.8727C21.3033 23.8727 21.2893 23.8727 21.2751 23.8727C20.5299 23.8589 19.9535 23.2509 19.9675 22.5326L20.1222 16.8714L15.8628 16.7747L14.8785 21.5665C14.8363 21.7599 14.7519 21.9672 14.6394 22.133L10.9972 27.2807C10.5332 27.9438 9.63333 28.082 8.95833 27.6261C8.2975 27.1702 8.14278 26.286 8.62083 25.6365L12.0803 20.7927L14.2974 8.44848L9.88653 12.4508C9.80931 12.5208 9.72361 12.5762 9.63333 12.6179L10.0461 13.0234L8.84056 14.208L10.8497 16.1821L9.24236 17.7615L2.81292 11.444L4.42028 9.86461L6.42944 11.8388L7.635 10.6542L8.30764 11.315C8.35889 11.2072 8.43028 11.1066 8.52333 11.0197L14.0483 5.86541C14.7775 5.24885 15.9472 4.87683 16.9597 5.04264L17.9158 5.22223C19.1954 5.44331 20.1796 6.29992 20.5875 7.41897L21.6281 10.2237L25.5792 12.0474C26.0993 12.2686 26.3243 12.8765 26.0993 13.3877ZM9.04153 13.0234L7.635 11.6414L6.93181 12.3324L8.33833 13.7144L9.04153 13.0234ZM7.635 16.9718L7.23319 17.3666L6.42958 16.5768L6.83139 16.182L4.42028 13.8129L4.01847 14.2077L3.21472 13.418L3.61653 13.0232L2.41097 11.8386L0 14.2079L6.42958 20.5254L8.84069 18.1563L7.635 16.9718Z" fill="#FF7323"/>
</svg>
