<svg width="52" height="52" viewBox="0 0 52 52" fill="none" xmlns="http://www.w3.org/2000/svg">
<path d="M26.6422 45.3573C25.9368 45.197 25.649 45.044 25.239 44.6116C24.6596 44.0018 24.5725 43.7475 24.5774 42.6812C24.581 41.5917 24.7796 40.8962 25.4893 39.4624L25.8959 38.6409H27.2703C28.5261 38.6442 28.7073 38.6045 29.3686 38.4005C30.4552 38.0362 31.5664 37.2658 32.1685 36.4578L32.4348 36.1008L33.1637 36.8417C33.9404 37.6315 34.6431 38.0803 35.6571 38.434C36.4683 38.7182 38.3445 38.7218 39.3792 38.434C41.7498 37.794 43.4198 35.923 44.0203 33.2346C44.0895 32.9249 44.4433 30.1371 44.8062 27.041C45.169 23.9449 45.4771 21.4226 45.4904 21.4361C45.5746 21.5199 46.5851 25.3635 46.9198 26.8731C48.5265 34.1191 48.5063 39.0519 46.8583 41.9323C46.1838 43.1107 44.8663 44.052 43.4838 44.342C42.5895 44.5314 42.0957 44.5096 41.3216 44.2582C39.3059 43.6003 36.9554 43.7096 32.6711 44.66C29.3261 45.4024 27.7015 45.5868 26.6421 45.3449L26.6422 45.3573ZM16.5984 37.5761C15.8696 37.4086 15.0553 37.076 14.4887 36.7124L14.0318 36.4173V27.889V19.3608L13.1167 19.2988C12.6134 19.2624 12.1895 19.2478 12.1747 19.2624C12.1602 19.2624 12.1179 23.1052 12.0811 27.7681L12.0144 36.2465L11.6742 36.3813C10.6812 36.7787 8.36543 36.814 7.41545 36.4468C5.95473 35.8818 4.93951 34.5624 4.51693 32.6801C4.42003 32.2481 4.39526 30.5658 4.39526 24.4462L4.39545 16.7554L4.59945 16.0315C5.05841 14.4021 6.08132 12.7839 7.17553 11.9556C8.38142 11.043 9.45006 10.7381 11.441 10.7381H12.6348L13.1749 10.1873C13.4718 9.88495 13.9417 9.45983 14.219 9.24417C16.2359 7.67592 18.9238 7.26282 21.5705 8.11379L22.3779 8.37244L22.6125 8.08465C23.3734 7.15026 24.3937 6.4501 25.5683 6.05631C26.2221 5.83774 26.4234 5.81224 27.6494 5.80859C29.1765 5.80859 29.7317 5.91424 30.8336 6.43371C31.6414 6.81512 32.3546 7.29779 33.1451 7.99868L33.7547 8.53891L34.4571 8.40777C35.3935 8.22927 37.9775 8.20741 38.643 8.37134C39.3589 8.5462 40.8521 9.28971 41.5486 9.81865C42.1707 10.2911 42.8576 11.1199 43.2091 11.8226C43.7202 12.844 44.072 14.4742 44.072 15.8203C44.072 16.2709 43.6517 20.195 43.1182 24.7259C42.0935 33.4276 42.0924 33.4342 41.4307 34.605C40.8446 35.6418 39.8308 36.3791 38.6558 36.6232C38.3826 36.6814 37.7489 36.7106 37.2474 36.6887C36.4375 36.6523 36.2687 36.6195 35.7353 36.3536C34.9579 35.9674 34.1934 35.2046 33.8191 34.4414L33.5306 33.8531V25.0764V16.2997L33.8148 15.6993L34.0989 15.0993L33.4394 14.4443C33.0765 14.0837 32.7373 13.8152 32.6853 13.8477C32.4955 13.9642 31.9595 14.9587 31.7535 15.5758L31.5418 16.2089L31.4956 24.9405C31.4544 32.6583 31.4322 33.7158 31.3043 34.0487C30.9035 35.0895 30.1532 35.9019 29.1621 36.3682C28.6226 36.6232 28.4441 36.6596 27.5846 36.6887C26.0091 36.7434 24.7379 36.4337 24.063 35.8221L23.713 35.5052V26.4224V17.3393H22.7633H21.8137L21.7918 26.9984L21.7699 36.6574L21.0913 36.9962C20.7181 37.182 20.1684 37.3984 19.8698 37.477C19.1056 37.6774 17.2989 37.7284 16.6003 37.5681L16.5984 37.5761Z" fill="#FDB702"/>
</svg>
