<svg width="40" height="30" viewBox="0 0 40 30" fill="none" xmlns="http://www.w3.org/2000/svg">
<path fill-rule="evenodd" clip-rule="evenodd" d="M0 15C0 8.75045 0 5.62567 1.59152 3.43512C2.10552 2.72767 2.72767 2.10552 3.43512 1.59152C5.62567 9.93411e-08 8.75045 0 15 0H25C31.2495 0 34.3743 9.93411e-08 36.5648 1.59152C37.2723 2.10552 37.8945 2.72767 38.4085 3.43512C40 5.62567 40 8.75045 40 15C40 21.2495 40 24.3743 38.4085 26.5648C37.8945 27.2723 37.2723 27.8945 36.5648 28.4085C34.3743 30 31.2495 30 25 30H15C8.75045 30 5.62567 30 3.43512 28.4085C2.72767 27.8945 2.10552 27.2723 1.59152 26.5648C0 24.3743 0 21.2495 0 15ZM15 3.33333H25C28.199 3.33333 30.3305 3.33792 31.9455 3.51288C33.4982 3.6811 34.1733 3.97413 34.6057 4.28825C35.03 4.59665 35.4033 4.96993 35.7118 5.3944C36.0258 5.82675 36.3188 6.50188 36.4872 8.05448C36.6622 9.66945 36.6667 11.801 36.6667 15C36.6667 18.199 36.6622 20.3305 36.4872 21.9455C36.3188 23.4982 36.0258 24.1733 35.7118 24.6057C35.4033 25.03 35.03 25.4033 34.6057 25.7118C34.1733 26.0258 33.4982 26.3188 31.9455 26.4872C30.3305 26.6622 28.199 26.6667 25 26.6667H15C11.801 26.6667 9.66945 26.6622 8.05448 26.4872C6.50188 26.3188 5.82675 26.0258 5.3944 25.7118C4.96993 25.4033 4.59665 25.03 4.28825 24.6057C3.97413 24.1733 3.6811 23.4982 3.51288 21.9455C3.33792 20.3305 3.33333 18.199 3.33333 15C3.33333 11.801 3.33792 9.66945 3.51288 8.05448C3.6811 6.50188 3.97413 5.82675 4.28825 5.3944C4.59665 4.96993 4.96993 4.59665 5.3944 4.28825C5.82675 3.97413 6.50188 3.6811 8.05448 3.51288C9.66945 3.33792 11.801 3.33333 15 3.33333Z" fill="#FF7323"/>
<path fill-rule="evenodd" clip-rule="evenodd" d="M15.4936 7.2196C14.9777 6.92483 14.344 6.92695 13.8301 7.22515C13.3163 7.52335 13 8.07255 13 8.66666V22C13 22.5942 13.3163 23.1433 13.8301 23.4415C14.344 23.7397 14.9777 23.7418 15.4936 23.447L27.1602 16.7803C27.6795 16.4837 28 15.9315 28 15.3333C28 14.7352 27.6795 14.183 27.1602 13.8863L15.4936 7.2196ZM22.974 15.3333L16.3333 19.128V11.5386L22.974 15.3333Z" fill="#FF7323"/>
</svg>
