<svg width="47" height="36" viewBox="0 0 47 36" fill="none" xmlns="http://www.w3.org/2000/svg">
<path fill-rule="evenodd" clip-rule="evenodd" d="M0.294312 17.793C0.294312 10.606 0.294312 7.01249 2.12429 4.49335C2.7153 3.67979 3.43066 2.96431 4.24411 2.37321C6.76287 0.542969 10.3558 0.542969 17.5417 0.542969H29.04C36.2259 0.542969 39.8189 0.542969 42.3376 2.37321C43.1511 2.96431 43.8665 3.67979 44.4575 4.49335C46.2875 7.01249 46.2875 10.606 46.2875 17.793C46.2875 24.9799 46.2875 28.5735 44.4575 31.0925C43.8665 31.9062 43.1511 32.6216 42.3376 33.2127C39.8189 35.043 36.2259 35.043 29.04 35.043H17.5417C10.3558 35.043 6.76287 35.043 4.24411 33.2127C3.43066 32.6216 2.7153 31.9062 2.12429 31.0925C0.294312 28.5735 0.294312 24.9799 0.294312 17.793ZM17.5417 4.3763H29.04C32.7183 4.3763 35.1692 4.38157 37.0262 4.58278C38.8115 4.77623 39.5878 5.11322 40.0849 5.47446C40.5728 5.82912 41.0021 6.25839 41.3568 6.74653C41.7179 7.24373 42.0548 8.02013 42.2483 9.80562C42.4495 11.6628 42.4547 14.1141 42.4547 17.793C42.4547 21.4718 42.4495 23.923 42.2483 25.7803C42.0548 27.5659 41.7179 28.3423 41.3568 28.8395C41.0021 29.3275 40.5728 29.7568 40.0849 30.1116C39.5878 30.4727 38.8115 30.8096 37.0262 31.0032C35.1692 31.2045 32.7183 31.2096 29.04 31.2096H17.5417C13.8634 31.2096 11.4125 31.2045 9.55559 31.0032C7.77037 30.8096 6.99408 30.4727 6.49695 30.1116C6.00889 29.7568 5.57967 29.3275 5.22507 28.8395C4.86389 28.3423 4.52695 27.5659 4.33353 25.7803C4.13234 23.923 4.12707 21.4718 4.12707 17.793C4.12707 14.1141 4.13234 11.6628 4.33353 9.80562C4.52695 8.02013 4.86389 7.24373 5.22507 6.74653C5.57967 6.25839 6.00889 5.82912 6.49695 5.47446C6.99408 5.11322 7.77037 4.77623 9.55559 4.58278C11.4125 4.38157 13.8634 4.3763 17.5417 4.3763Z" fill="#FDB702"/>
<path fill-rule="evenodd" clip-rule="evenodd" d="M18.1092 8.84433C17.5161 8.50535 16.7874 8.50779 16.1966 8.85072C15.6057 9.19365 15.2421 9.82523 15.2421 10.5085V25.8418C15.2421 26.5251 15.6057 27.1566 16.1966 27.4995C16.7874 27.8424 17.5161 27.8449 18.1092 27.5058L31.5238 19.8392C32.121 19.498 32.4895 18.863 32.4895 18.1751C32.4895 17.4872 32.121 16.8522 31.5238 16.5111L18.1092 8.84433ZM26.7105 18.1751L19.0748 22.539V13.8112L26.7105 18.1751Z" fill="#FDB702"/>
</svg>
